<svg width="47" height="20" viewBox="0 0 47 20" fill="none" xmlns="http://www.w3.org/2000/svg">
<path fill-rule="evenodd" clip-rule="evenodd" d="M21.0009 1.33583C20.8454 1.6562 20.7181 1.94186 20.7181 1.97059C20.7181 1.99936 20.7063 2.02288 20.6919 2.02288C20.6634 2.02288 20.4867 2.39357 20.4867 2.45333C20.4867 2.47352 20.4718 2.49004 20.4536 2.49004C20.4355 2.49004 20.4206 2.50392 20.4206 2.5209C20.4206 2.55397 20.0647 3.31374 19.4422 4.60923C19.3804 4.73787 19.3299 4.8605 19.3299 4.88175C19.3299 4.90297 19.3187 4.92536 19.3051 4.9315C19.2791 4.94315 19.2362 5.02847 18.9812 5.57661C18.8958 5.76014 18.7181 6.13553 18.5862 6.41082C18.1254 7.37257 18.0408 7.55576 18.0408 7.59213C18.0408 7.61229 18.0259 7.62877 18.0077 7.62877C17.9896 7.62877 17.9745 7.64756 17.9743 7.67048C17.974 7.69344 17.9145 7.82945 17.8421 7.97276C17.7696 8.11608 17.7103 8.25499 17.7103 8.28142C17.7103 8.30788 17.6954 8.3295 17.6772 8.3295C17.659 8.3295 17.6442 8.34582 17.6442 8.36574C17.6442 8.38566 17.5341 8.62965 17.3996 8.90798C16.9832 9.76942 16.7897 10.1886 16.7788 10.253C16.7688 10.3118 16.8112 10.3154 17.6111 10.3243C18.0747 10.3295 18.4868 10.3256 18.5269 10.3157C18.5785 10.3029 18.6061 10.2637 18.6214 10.1812C18.6334 10.1171 18.6563 10.0647 18.6725 10.0647C18.6886 10.0647 18.7019 10.0489 18.7019 10.0298C18.7019 10.0105 18.7554 9.87917 18.8208 9.73778C18.8862 9.5964 18.9771 9.39813 19.0227 9.29719C19.2417 8.81311 19.338 8.60583 19.3815 8.52458C19.4077 8.47586 19.429 8.41202 19.429 8.38276C19.429 8.35346 19.4439 8.3295 19.4621 8.3295C19.4802 8.3295 19.4951 8.31479 19.4951 8.29677C19.4951 8.27879 19.5546 8.13584 19.6273 7.97914C19.7 7.82244 19.7595 7.68566 19.7595 7.67525C19.7595 7.66481 19.8021 7.56373 19.8542 7.45065C19.966 7.20803 20.0685 6.98072 20.1802 6.72782C20.2248 6.62688 20.2897 6.48323 20.3244 6.40862C20.3591 6.33401 20.3875 6.25519 20.3875 6.23344C20.3875 6.21171 20.4024 6.19393 20.4206 6.19393C20.4388 6.19393 20.4536 6.17745 20.4536 6.15726C20.4536 6.10854 20.5024 5.99792 21.0454 4.81421C21.1199 4.65181 21.1808 4.50859 21.1808 4.49591C21.1808 4.48327 21.2083 4.4185 21.2419 4.35199L21.3029 4.23113L21.363 4.36998C21.396 4.44636 21.4816 4.63646 21.5532 4.79246C21.8223 5.37864 21.9135 5.57945 21.9545 5.67672C21.9778 5.73178 22.0488 5.88944 22.1123 6.02709C22.1758 6.16473 22.258 6.34492 22.2951 6.42751C22.3321 6.51009 22.4146 6.69028 22.4783 6.82793C22.5421 6.96557 22.5914 7.08156 22.588 7.08563C22.5846 7.08974 22.1725 7.09437 21.6722 7.09591C20.8125 7.09855 20.7596 7.10228 20.7073 7.16391C20.6769 7.19979 20.652 7.23739 20.652 7.24747C20.652 7.26599 20.5704 7.44918 20.3706 7.87903C20.0827 8.49855 20.024 8.63723 20.024 8.69782C20.024 8.76199 20.0566 8.76329 21.6574 8.76329C22.5557 8.76329 23.3143 8.7724 23.3431 8.78355C23.3718 8.79469 23.3953 8.81869 23.3953 8.8369C23.3953 8.87094 23.4049 8.89353 23.611 9.34724C23.8258 9.8198 23.8966 9.9788 23.9455 10.098C23.9719 10.1623 24.0055 10.2373 24.0202 10.2649C24.0428 10.307 24.1841 10.3163 24.9188 10.3238C25.3983 10.3287 25.8089 10.3257 25.8313 10.317C25.8625 10.3049 25.8608 10.2797 25.8237 10.208C25.7972 10.1567 25.7755 10.096 25.7753 10.073C25.7752 10.0501 25.7603 10.0313 25.7421 10.0313C25.7239 10.0313 25.709 10.0158 25.709 9.99696C25.709 9.96379 25.5516 9.62273 25.1474 8.77998C25.0418 8.55975 24.8703 8.19937 24.7663 7.97914C24.6623 7.75891 24.4767 7.3685 24.3539 7.11156C24.0499 6.47539 23.7678 5.88217 23.1718 4.62562C23.0718 4.41456 22.8893 4.03166 22.7664 3.77472C22.6436 3.51778 22.4656 3.14239 22.371 2.94051C22.2763 2.73863 22.1052 2.37825 21.9907 2.13967C21.8762 1.90109 21.6843 1.50023 21.5642 1.24894C21.444 0.997604 21.3318 0.783279 21.3147 0.772635C21.2977 0.762024 21.1565 1.01546 21.0009 1.33583ZM26.1718 5.54345V10.332L28.7397 10.3235L31.3075 10.3149L31.3815 10.1648C31.5122 9.89942 31.7246 9.42749 31.7246 9.40236C31.7246 9.38898 31.7544 9.31914 31.7907 9.24714C31.8271 9.17513 31.8568 9.09688 31.8568 9.07325C31.8568 9.04959 31.8705 9.03024 31.8873 9.03024C31.904 9.03024 31.9274 8.98536 31.9394 8.9305C31.9513 8.87568 31.9748 8.82222 31.9916 8.81174C32.0084 8.8013 32.0221 8.7711 32.0221 8.74464C32.0221 8.70326 31.7265 8.69656 29.9067 8.69656H27.7914V7.54565V6.39477L29.4192 6.3861L31.047 6.37746V5.55993V4.7424L29.4192 4.73376L27.7914 4.72509V3.57448V2.4239L29.5478 2.41526C31.0691 2.40779 31.3079 2.39991 31.3312 2.35656C31.346 2.32904 31.405 2.2014 31.4623 2.07293C31.6382 1.67815 31.7274 1.47981 31.8136 1.29241C31.9744 0.942346 32.0221 0.815246 32.0037 0.785248C31.9928 0.767396 30.7881 0.754883 29.0785 0.754883H26.1718V5.54345ZM35.8397 0.788919C35.4922 0.841374 35.2423 0.890726 35.1786 0.919523C35.1423 0.93594 35.053 0.964803 34.9803 0.983623C34.7877 1.03348 34.5202 1.13008 34.5011 1.15667C34.492 1.16932 34.4501 1.19054 34.408 1.20379C34.3659 1.21707 34.2273 1.29041 34.0999 1.36679C33.9725 1.44317 33.8427 1.52069 33.8116 1.53904C33.7804 1.55739 33.7332 1.59073 33.7066 1.61308C33.68 1.63547 33.5531 1.74058 33.4247 1.84666C32.9659 2.22549 32.5704 2.69399 32.2618 3.22414C32.129 3.45228 31.8572 4.11798 31.8563 4.21715C31.8561 4.24912 31.8353 4.33531 31.8103 4.40872C31.7465 4.59525 31.6773 5.1855 31.6771 5.54325C31.6768 6.05488 31.8092 6.84391 31.9571 7.21166C31.9792 7.26672 32.009 7.3418 32.0233 7.37851C32.0956 7.56377 32.3385 8.03813 32.4022 8.11862C32.4204 8.14157 32.4504 8.17965 32.4689 8.20321C32.4874 8.2268 32.5732 8.34369 32.6596 8.46298C32.8136 8.67564 33.1817 9.05613 33.4764 9.30743C33.6688 9.47147 33.9022 9.62623 34.1705 9.76778C34.2887 9.83011 34.3902 9.89191 34.396 9.90509C34.4019 9.91827 34.4577 9.93873 34.52 9.95054C34.5823 9.96232 34.6333 9.98384 34.6333 9.99832C34.6333 10.0128 34.7077 10.0427 34.7986 10.0647C34.8896 10.0867 34.9715 10.1169 34.9806 10.1318C34.9897 10.1467 35.0603 10.1693 35.1375 10.182C35.2147 10.1947 35.3596 10.228 35.4596 10.256C35.6038 10.2963 35.9232 10.3102 37.0041 10.323C38.35 10.339 38.5335 10.3315 38.5335 10.2609C38.5335 10.2411 38.5543 10.1776 38.5798 10.1198C38.6787 9.89535 38.887 9.43643 39.1149 8.94055C39.1587 8.84531 39.1945 8.75228 39.1945 8.73376C39.1945 8.71174 38.6429 8.69616 37.5997 8.68875C36.2254 8.67897 35.9684 8.66926 35.7405 8.61847C35.5951 8.58604 35.4464 8.5465 35.41 8.53062C35.0503 8.37318 34.9404 8.31612 34.7442 8.18512C34.6195 8.1019 34.473 7.99369 34.4184 7.94463C34.3639 7.89558 34.2888 7.83071 34.2515 7.80052C34.1977 7.75684 33.9863 7.49583 33.7476 7.1783C33.6864 7.09691 33.4726 6.55371 33.4062 6.31072C33.3014 5.92755 33.3018 5.16201 33.407 4.77577C33.4831 4.49671 33.4896 4.47863 33.6124 4.20851C33.6797 4.06066 33.7228 3.98678 33.8819 3.74666C34.0022 3.56523 34.2392 3.30927 34.4368 3.14766C34.4994 3.09641 34.5953 3.01723 34.6498 2.97168C34.7849 2.85886 35.241 2.62705 35.4431 2.56852C35.5339 2.54223 35.6604 2.50435 35.724 2.48437C35.7939 2.46244 36.3626 2.43989 37.1606 2.42734L38.4815 2.40662L38.5226 2.3232C38.5452 2.27732 38.6105 2.13467 38.6677 2.0062C38.8684 1.55526 38.9373 1.4035 39.0489 1.16561C39.1109 1.03364 39.1653 0.890993 39.1698 0.848615L39.178 0.771567L37.5915 0.767763C36.7189 0.765661 35.9306 0.775204 35.8397 0.788919ZM39.7723 0.795092C39.7633 0.81885 39.7598 2.97054 39.7645 5.57661L39.773 10.3149L40.2281 10.3242L40.6832 10.3335L40.7848 10.1073C40.8406 9.98291 40.937 9.77419 40.999 9.64345C41.0609 9.51275 41.1116 9.39769 41.1116 9.38782C41.1116 9.36793 41.3283 8.88022 41.3777 8.78879C41.3958 8.75539 41.4091 8.23531 41.4091 7.56073V6.39064L42.7394 6.40075L44.0698 6.41082L44.2302 6.49351C44.4758 6.62014 44.6491 6.80454 44.7811 7.07942C44.8472 7.2171 44.8601 7.29288 44.8574 7.52866C44.8534 7.8757 44.7575 8.11905 44.5391 8.33594C44.3268 8.54687 44.2987 8.56489 44.0753 8.63346C43.8979 8.68795 43.757 8.69609 42.9865 8.69629L42.1015 8.69656L42.0686 8.78832C42.0505 8.83877 42.0219 8.91012 42.0051 8.94682C41.9601 9.04506 41.7457 9.51952 41.6507 9.73098C41.6054 9.83192 41.5325 9.98721 41.4887 10.0761C41.4449 10.165 41.4091 10.2588 41.4091 10.2846C41.4091 10.3242 41.6129 10.3316 42.7064 10.3313C43.9881 10.3311 44.2799 10.3125 44.5821 10.2116C44.8397 10.1257 45.0779 10.02 45.0779 9.99178C45.0779 9.9768 45.092 9.96455 45.1093 9.96455C45.1765 9.96455 45.4689 9.73812 45.69 9.51482C45.9486 9.25357 46.1315 8.99147 46.2553 8.7046C46.3007 8.59922 46.3512 8.48807 46.3675 8.45754C46.4245 8.35033 46.5106 7.77622 46.5072 7.52573C46.5029 7.20409 46.4431 6.76046 46.3776 6.56342C46.322 6.39644 46.1724 6.06403 46.1288 6.01064C46.1137 5.99215 46.0708 5.9395 46.0335 5.89361C45.8545 5.67348 45.6422 5.47047 45.5275 5.40977C45.4059 5.34537 45.3929 5.2786 45.478 5.15641C45.5216 5.09387 45.5672 5.03504 45.5794 5.0257C45.5916 5.01632 45.6118 4.96754 45.6243 4.91725C45.6367 4.86697 45.6583 4.82583 45.6721 4.82583C45.686 4.82583 45.7164 4.75452 45.7398 4.66733C45.7632 4.58013 45.794 4.49324 45.8084 4.47422C45.8552 4.41229 45.9158 3.91577 45.9163 3.5912C45.9167 3.27266 45.8645 2.86457 45.8073 2.7403C45.7904 2.7036 45.7586 2.6135 45.7365 2.54009C45.7144 2.46668 45.6873 2.39911 45.6763 2.38993C45.6653 2.38076 45.6117 2.28696 45.5572 2.18148C45.5026 2.07604 45.4479 1.98968 45.4355 1.98961C45.4231 1.98958 45.404 1.96135 45.3932 1.92688C45.3698 1.85254 44.9373 1.39863 44.8002 1.30453C44.5317 1.12023 44.2263 0.955093 44.1541 0.955093C44.1241 0.955093 44.0854 0.941546 44.0682 0.924961C44.0509 0.908377 43.9401 0.867401 43.8219 0.833866C43.6274 0.778641 43.4267 0.771901 41.6978 0.762357C40.1577 0.753882 39.7854 0.760222 39.7723 0.795092ZM3.3649 3.14052C2.08354 4.43425 1.03121 5.51912 1.02639 5.55139C1.02054 5.5905 1.79635 6.39541 3.35832 7.9708L5.69905 10.3316H6.79908C7.49943 10.3316 7.89514 10.3198 7.8881 10.2991C7.88205 10.2812 6.82955 9.20689 5.54925 7.9118L3.22142 5.55706L5.54879 3.20743C6.82886 1.9151 7.88132 0.842141 7.88763 0.823021C7.89547 0.799363 7.54646 0.788251 6.79686 0.788251H5.69462L3.3649 3.14052ZM10.1309 0.809807C10.1191 0.821653 10.8492 1.57848 11.7532 2.49164C12.6572 3.40483 13.7091 4.46878 14.0908 4.85606L14.7847 5.56013L12.4451 7.92228C11.1583 9.22147 10.116 10.295 10.1288 10.308C10.1417 10.321 10.6361 10.3316 11.2276 10.3316H12.303L14.6594 7.95411C15.9554 6.6465 17.012 5.56493 17.0074 5.55069C17.0028 5.5364 15.9435 4.45904 14.6534 3.1565L12.3077 0.788251H11.23C10.6372 0.788251 10.1426 0.797961 10.1309 0.809807ZM43.6401 2.52828C43.8908 2.66219 44.0695 2.85185 44.1937 3.11583C44.3034 3.34927 44.3 3.80726 44.1866 4.04167C44.1422 4.13343 44.0938 4.22353 44.0791 4.24188C43.9415 4.41302 43.8519 4.48487 43.5575 4.65988C43.4906 4.69969 43.2782 4.71104 42.442 4.71951L41.4091 4.73002V3.57414V2.41826L42.442 2.42914L43.4749 2.43999L43.6401 2.52828ZM11.6926 11.8338C11.4576 11.8742 11.3311 12.0294 11.3311 12.2773C11.3311 12.3912 11.3169 12.4243 11.2567 12.4509C11.1939 12.4788 11.1824 12.5097 11.1824 12.6507L11.1824 12.8176H11.7443H12.3062L12.3164 12.6733C12.3317 12.4596 12.2945 12.4338 11.9716 12.4338C11.6819 12.4338 11.6746 12.4294 11.7149 12.2776C11.7524 12.1367 11.926 12.1587 11.926 12.3044C11.926 12.3725 11.9995 12.384 12.1892 12.3457C12.3173 12.3198 12.3435 12.2647 12.2898 12.1338C12.1925 11.8968 11.9715 11.7857 11.6926 11.8338ZM1.6136 12.1517V12.4368L1.85323 12.4269L2.09286 12.4171L2.10271 12.1889C2.11541 11.8941 2.09161 11.8666 1.82441 11.8666H1.6136V12.1517ZM2.23195 11.8874C2.21906 11.9004 2.20855 12.0287 2.20855 12.1724V12.4338H2.45777H2.70702L2.6974 12.1585L2.68781 11.8832L2.47158 11.8735C2.35263 11.8682 2.24481 11.8745 2.23195 11.8874ZM6.16387 12.1224C6.15174 12.1346 6.14182 12.6345 6.14182 13.2332C6.14182 14.0921 6.15227 14.3622 6.1913 14.5135C6.25185 14.7482 6.34331 14.8786 6.50107 14.9549C6.56708 14.9869 6.6469 15.0258 6.67846 15.0415C6.71003 15.0571 6.94259 15.0699 7.19524 15.0699C7.64879 15.0699 7.65534 15.071 7.70878 15.1533C7.73856 15.1992 7.78491 15.2368 7.81174 15.2368C7.83858 15.2368 7.86056 15.2497 7.86056 15.2656C7.86056 15.2814 7.9312 15.3219 8.01756 15.3554C8.20666 15.429 8.55989 15.4367 8.72145 15.3708C8.84785 15.3193 9.05238 15.1769 9.09343 15.1118C9.11386 15.0794 9.39672 15.0699 10.3392 15.0699C11.1165 15.0699 11.566 15.0578 11.579 15.0365C11.5902 15.0182 11.6304 15.0032 11.6682 15.0032C11.752 15.0032 12.0252 14.7278 12.0252 14.6433C12.0252 14.61 12.0403 14.5675 12.0589 14.5487C12.0804 14.527 12.0893 14.2314 12.0837 13.7329L12.0748 12.951L11.9117 12.9406C11.822 12.9349 11.7142 12.9389 11.6721 12.9496L11.5955 12.969V13.6821C11.5955 14.5949 11.6225 14.5482 11.0851 14.564L10.7009 14.5752L10.7043 13.7887C10.7061 13.3561 10.6983 12.9869 10.6869 12.9682C10.6629 12.9291 10.3093 12.923 10.2505 12.9607C10.2225 12.9787 10.2081 13.1953 10.2009 13.7098C10.1884 14.6016 10.2188 14.5481 9.71515 14.5639L9.35742 14.575L9.34007 14.268C9.33055 14.0991 9.30811 13.9514 9.29023 13.9398C9.27231 13.9282 9.24627 13.8812 9.23228 13.8353C9.15038 13.5662 8.73233 13.3014 8.38941 13.3014C8.15956 13.3014 7.82397 13.4482 7.69616 13.6047C7.66 13.6489 7.61558 13.7029 7.59743 13.7247C7.51189 13.8273 7.43091 14.1305 7.43091 14.3481L7.43088 14.5774L7.11258 14.5633C6.64174 14.5425 6.67067 14.6186 6.67067 13.4013V12.4074L6.50795 12.302C6.41844 12.244 6.32738 12.1749 6.30556 12.1483C6.26349 12.0972 6.20029 12.0856 6.16387 12.1224ZM13.8762 13.2046C13.8762 14.396 13.8619 14.5052 13.7004 14.5489C13.5285 14.5955 13.4931 14.5421 13.3932 14.0855C13.3811 14.0305 13.36 13.9704 13.3463 13.9521C13.3326 13.9337 13.3033 13.8295 13.2811 13.7205C13.259 13.6115 13.2287 13.4988 13.2137 13.4702C13.1988 13.4416 13.1696 13.3506 13.1488 13.268C12.9984 12.6696 13.0254 12.7183 12.7387 12.5302C12.6299 12.4588 12.529 12.4004 12.5144 12.4004C12.4696 12.4004 12.4843 12.502 12.5893 12.9177C12.645 13.1379 12.7118 13.4128 12.7379 13.5287C12.7639 13.6445 12.7981 13.7646 12.8138 13.7956C12.8296 13.8266 12.8525 13.9181 12.8647 13.999C12.877 14.0798 12.8975 14.1624 12.9105 14.1825C12.9233 14.2026 12.9498 14.2973 12.9692 14.3931L13.0044 14.5671L12.6883 14.5766L12.3723 14.5861L12.3619 14.7507C12.3563 14.8412 12.3603 14.9501 12.3708 14.9926L12.39 15.0699H13.069C13.8828 15.0699 14.0123 15.041 14.1924 14.819C14.294 14.6939 14.3117 14.6432 14.3397 14.3978C14.3571 14.2444 14.3716 13.7398 14.3717 13.2764C14.3719 12.5016 14.3671 12.4289 14.3109 12.3722C14.2239 12.2844 13.9535 12.1001 13.9115 12.1001C13.8871 12.1001 13.8762 12.4425 13.8762 13.2046ZM14.7435 13.5767L14.7521 15.0532L14.9449 15.0633C15.0586 15.0693 15.1569 15.0573 15.1845 15.0342C15.2234 15.0016 15.2313 14.7769 15.2313 13.7057V12.4164L15.0154 12.2582C14.8966 12.1713 14.7849 12.1001 14.7671 12.1001C14.7465 12.1001 14.7379 12.6319 14.7435 13.5767ZM19.7994 13.3598L19.8091 14.6194L19.8905 14.7362C19.9953 14.8866 20.0424 14.9253 20.2168 15.0047C20.3395 15.0606 20.4349 15.0699 20.8846 15.0699C21.4001 15.0699 21.4106 15.0714 21.4918 15.1533C21.5372 15.1992 21.59 15.2368 21.609 15.2368C21.628 15.2368 21.6435 15.2497 21.6435 15.2656C21.6435 15.2814 21.7136 15.3214 21.7991 15.3544C21.9942 15.4296 22.3713 15.4305 22.5437 15.3563C22.6696 15.302 22.9985 15.0097 22.9989 14.9518C22.999 14.9341 23.0245 14.8747 23.0555 14.8197C23.0985 14.7432 23.1121 14.636 23.1131 14.3667C23.1143 14.0429 23.1066 13.9983 23.0192 13.8238C22.9669 13.7193 22.8776 13.5963 22.8209 13.5505C22.7642 13.5047 22.7001 13.4527 22.6785 13.435C22.558 13.3361 22.1467 13.2959 21.8891 13.358C21.7378 13.3944 21.4578 13.5878 21.4276 13.6768C21.4167 13.7089 21.3939 13.7352 21.3769 13.7352C21.36 13.7352 21.3456 13.754 21.3449 13.7769C21.3443 13.7998 21.3151 13.8787 21.28 13.9521C21.2354 14.0453 21.2158 14.1586 21.215 14.3275L21.2139 14.5694H20.869C20.4134 14.5694 20.3734 14.5519 20.3078 14.3243C20.2657 14.1781 20.2553 13.9666 20.2553 13.2557C20.2553 12.3705 20.2552 12.3694 20.181 12.33C20.1401 12.3084 20.0524 12.2478 19.9862 12.1954C19.9199 12.143 19.8486 12.1001 19.8277 12.1001C19.7995 12.1001 19.7921 12.4263 19.7994 13.3598ZM26.1062 12.2086C26.1064 12.2682 26.1027 12.7859 26.0979 13.3589C26.0871 14.6409 26.129 14.5471 25.5595 14.5639L25.1802 14.5751V14.2469C25.1802 13.9038 25.1023 13.3928 25.0471 13.3737C25.0294 13.3676 25.0149 13.343 25.0149 13.3192C25.0149 13.2953 24.9565 13.2225 24.8851 13.1573C24.6088 12.9054 24.1587 12.8807 23.8139 13.0986C23.5547 13.2625 23.3926 13.5947 23.3902 13.9671C23.3881 14.2867 23.4101 14.3946 23.5172 14.5879C23.6852 14.8914 24.006 15.0699 24.3835 15.0699L24.5949 15.0699L24.5069 15.1523C24.4495 15.2059 24.3615 15.2423 24.2541 15.2567L24.0894 15.2787V15.5052C24.0894 15.646 24.1038 15.7366 24.1274 15.7445C24.1901 15.7656 24.5957 15.6708 24.6844 15.6143C24.8735 15.4938 25.081 15.2361 25.081 15.1217C25.081 15.0788 25.2612 15.0705 26.4114 15.0602C27.8549 15.0472 27.9951 15.0326 28.2628 14.867C28.3495 14.8134 28.4267 14.7696 28.4343 14.7696C28.442 14.7696 28.4976 14.8152 28.5578 14.8709C28.618 14.9267 28.7044 14.9801 28.7499 14.9897C28.7953 14.9993 28.8583 15.0213 28.8899 15.0386C28.9215 15.0558 29.2616 15.0699 29.6457 15.0699H30.3442L30.4609 15.1733C30.8266 15.4975 31.3997 15.4975 31.7654 15.1733L31.8821 15.0699L33.0346 15.0699C34.3144 15.0699 34.406 15.0568 34.6009 14.8462C34.7765 14.6565 34.7985 14.4948 34.7985 13.3962V12.402L34.7076 12.3436C34.6576 12.3115 34.6093 12.2774 34.6002 12.2677C34.5545 12.2195 34.3672 12.1001 34.3371 12.1001C34.314 12.1001 34.3027 12.4747 34.3027 13.2462C34.3027 14.6545 34.3442 14.5467 33.796 14.5643L33.4268 14.5761L33.4369 13.4981L33.4469 12.4201L33.3707 12.3594C33.2199 12.2392 33.0097 12.1001 32.979 12.1001C32.9598 12.1001 32.9463 12.5274 32.9443 13.1929C32.9425 13.794 32.9313 14.3158 32.9195 14.3525C32.8572 14.5459 32.8451 14.5513 32.446 14.5639L32.0717 14.5757L32.0665 14.3106C32.06 13.9801 31.9769 13.7779 31.7611 13.5674C31.5358 13.3476 31.1761 13.2519 30.9007 13.3385C30.6781 13.4084 30.5511 13.4846 30.4104 13.6322C30.2452 13.8055 30.1381 14.1047 30.1381 14.3926V14.5759L29.5506 14.5643C28.9952 14.5533 28.9587 14.5486 28.8833 14.4776C28.8394 14.4364 28.8218 14.4025 28.844 14.4025C28.8787 14.4025 29.0911 14.1968 29.1961 14.0614C29.3075 13.9177 29.4109 13.7706 29.4109 13.7556C29.4109 13.746 29.4556 13.6617 29.5101 13.5683C29.5646 13.475 29.6092 13.3853 29.6092 13.369C29.6092 13.3207 29.1443 13.047 28.9482 12.9799C28.6679 12.884 28.1116 12.8926 27.8079 12.9977C27.6806 13.0417 27.569 13.0868 27.5598 13.0978C27.5506 13.1088 27.4836 13.1501 27.411 13.1895L27.279 13.2611V13.4898V13.7185L27.4559 13.8105C27.7212 13.9485 28.0888 14.263 28.0888 14.352C28.0888 14.376 28.0256 14.4293 27.9484 14.4705C27.8213 14.5382 27.7493 14.5468 27.1964 14.5609L26.5849 14.5763L26.5941 13.5134C26.5991 12.9288 26.5917 12.4354 26.5776 12.4169C26.5328 12.3585 26.1761 12.1001 26.1401 12.1001C26.1212 12.1001 26.1059 12.1489 26.1062 12.2086ZM38.1699 13.2892C38.1699 14.4859 38.1893 14.7203 38.2918 14.76C38.3157 14.7692 38.3353 14.7939 38.3354 14.8149C38.3357 14.8638 38.5374 15.0032 38.608 15.0032C38.6376 15.0032 38.671 15.0182 38.6822 15.0365C38.7077 15.0782 42.7719 15.0829 42.8556 15.0415C42.8872 15.0258 42.9698 14.9853 43.0393 14.9515C43.1836 14.8812 43.2854 14.7524 43.3365 14.5752C43.3893 14.3924 43.4051 13.0402 43.3552 12.9796C43.3268 12.945 43.2588 12.9342 43.1143 12.9412L42.913 12.951L42.8964 13.6684C42.8784 14.4531 42.8639 14.5142 42.6878 14.5498C42.5945 14.5686 42.0388 14.5782 42.0354 14.561C42.0345 14.5564 42.0256 14.4551 42.0157 14.3358C42.0057 14.2165 41.9841 14.1047 41.9678 14.0872C41.9513 14.0698 41.9379 14.0309 41.9379 14.0008C41.9379 13.8813 41.7323 13.5374 41.5769 13.3972C41.3521 13.1942 41.3318 13.1793 41.2413 13.1512C41.1972 13.1376 41.1444 13.1129 41.1239 13.0964C41.1034 13.0799 40.9596 13.0507 40.8045 13.0315C40.4439 12.987 40.0942 13.0326 39.8616 13.1544C39.667 13.2563 39.4256 13.4693 39.4266 13.5382C39.4273 13.5905 39.7387 13.9354 39.7852 13.9354C39.8016 13.9354 39.8414 13.8941 39.8737 13.8436C39.9759 13.6838 40.0838 13.6043 40.303 13.527L40.5161 13.452L40.7953 13.5248C41.0261 13.5851 41.0967 13.62 41.2018 13.7261C41.3523 13.8781 41.4752 14.188 41.4752 14.4157V14.5722L40.1336 14.5625L38.792 14.5527L38.7289 14.4739C38.6699 14.4003 38.6657 14.33 38.6657 13.4057V12.4164L38.4498 12.2582C38.331 12.1713 38.2194 12.1001 38.2019 12.1001C38.1819 12.1001 38.1699 12.5462 38.1699 13.2892ZM45.1769 13.2263C45.1767 14.3459 45.1763 14.3531 45.102 14.4468C45.0494 14.5131 44.9941 14.5429 44.9161 14.5469L44.805 14.5527L44.6576 14.0355C44.5108 13.5201 44.4338 13.2473 44.338 12.9034C44.293 12.742 44.1624 12.5728 44.0795 12.5685C44.0667 12.5678 44.0014 12.5297 43.9345 12.4839C43.8675 12.438 43.8016 12.4004 43.7881 12.4004C43.7637 12.4004 43.8293 12.7991 43.8714 12.9069C43.8834 12.9377 43.9133 13.0503 43.9377 13.1571C43.9809 13.3458 44.0189 13.499 44.1428 13.9854C44.1756 14.1139 44.2117 14.234 44.2232 14.2524C44.2346 14.2707 44.2544 14.3496 44.2672 14.4276L44.2905 14.5694H43.9721H43.6537L43.6635 14.8113L43.6732 15.0532L44.3796 15.0622C44.7682 15.0672 45.1028 15.058 45.1233 15.0418C45.1438 15.0256 45.1987 15.0032 45.2452 14.992C45.3447 14.9681 45.4695 14.8599 45.5593 14.7195C45.6188 14.6264 45.624 14.541 45.6332 13.4953L45.6431 12.3712L45.5671 12.3309C45.5253 12.3088 45.4369 12.2478 45.3706 12.1954C45.3044 12.143 45.2337 12.1001 45.2136 12.1001C45.1877 12.1001 45.177 12.4258 45.1769 13.2263ZM46.0034 13.545C46.0034 14.6242 46.0134 15 46.0431 15.0299C46.0902 15.0775 46.4536 15.084 46.4819 15.0378C46.4927 15.0201 46.5023 14.4232 46.5032 13.7114L46.5048 12.4171L46.2989 12.2586C46.1856 12.1715 46.0728 12.1001 46.0482 12.1001C46.0112 12.1001 46.0034 12.3517 46.0034 13.545ZM5.28245 12.5673V12.8342H5.53035H5.77824V12.5673V12.3003H5.53035H5.28245V12.5673ZM9.88365 12.5589L9.8933 12.8176H10.1247H10.356L10.3657 12.5589L10.3753 12.3003H10.1247H9.874L9.88365 12.5589ZM10.5048 12.5673V12.8372L10.7444 12.8274L10.984 12.8176V12.5673V12.317L10.7444 12.3072L10.5048 12.2974V12.5673ZM42.2753 12.5589L42.285 12.8176L42.5246 12.8274L42.7642 12.8372V12.5688V12.3003H42.5149H42.2657L42.2753 12.5589ZM42.8964 12.5688V12.8372L43.1361 12.8274L43.3757 12.8176L43.3854 12.5589L43.395 12.3003H43.1457H42.8964V12.5688ZM1.6806 12.5687C1.58111 12.5833 1.49435 12.6114 1.4878 12.6313C1.48126 12.6511 1.45782 12.6674 1.43578 12.6674C1.38646 12.6674 1.15086 12.9066 1.15086 12.9567C1.15086 12.9766 1.12895 13.0113 1.10214 13.0337C1.07537 13.0562 1.04367 13.1293 1.03174 13.1963C1.01981 13.2633 0.995977 13.336 0.978823 13.3579C0.912949 13.4418 1.00675 14.2691 1.08211 14.2691C1.09593 14.2691 1.12363 14.3054 1.14369 14.3499C1.19935 14.4733 1.28634 14.5677 1.43181 14.6625C1.54703 14.7377 1.59863 14.7486 1.8331 14.7474C2.05571 14.7464 2.12426 14.7326 2.22973 14.6679C2.29991 14.6248 2.3668 14.5756 2.37847 14.5584C2.39011 14.5412 2.40881 14.5564 2.42002 14.592C2.46457 14.7337 2.70655 14.9314 2.92123 15.0014C3.11469 15.0645 3.21196 15.0699 4.14904 15.0694C5.41367 15.0688 5.46887 15.0556 5.67426 14.7029C5.76076 14.5543 5.76185 14.5445 5.77352 13.793C5.78234 13.226 5.775 13.0207 5.74469 12.9838C5.68586 12.9122 5.32995 12.9149 5.30251 12.9871C5.29147 13.0162 5.28096 13.3202 5.27915 13.6628C5.27432 14.5757 5.28962 14.5489 4.76425 14.5637L4.3735 14.5746V13.7628V12.951H4.15866H3.94382L3.92729 13.6684C3.91453 14.2229 3.89969 14.4027 3.86208 14.46C3.80222 14.5511 3.6155 14.5845 3.29463 14.5613C3.03017 14.5422 2.92434 14.47 2.86973 14.2715C2.85169 14.2059 2.83685 13.7973 2.83675 13.3634C2.83658 12.6748 2.82991 12.5719 2.78426 12.5542C2.71135 12.5259 1.89997 12.5366 1.6806 12.5687ZM17.1992 12.5939C17.1894 12.6037 17.1814 12.7294 17.1814 12.8732V13.1346H17.4293H17.6772V12.8698C17.6772 12.6471 17.6681 12.6022 17.6194 12.5866C17.5479 12.5638 17.2235 12.5693 17.1992 12.5939ZM17.8329 12.5881C17.82 12.6011 17.8094 12.7294 17.8094 12.8732V13.1346H18.0421H18.2748L18.2652 12.8593L18.2556 12.584L18.056 12.5742C17.9461 12.5689 17.8458 12.5751 17.8329 12.5881ZM16.1237 13.4696C16.1237 13.9593 16.1336 14.0693 16.1946 14.2621C16.2722 14.507 16.405 14.7243 16.4956 14.7547C16.5274 14.7654 16.5534 14.7866 16.5534 14.8018C16.5534 14.8477 16.8202 14.9736 16.9983 15.0118C17.2074 15.0566 18.7946 15.0828 18.8459 15.0423C18.8667 15.0258 18.9283 15.0016 18.9828 14.9884C19.1008 14.9599 19.2904 14.7618 19.3166 14.6397C19.3268 14.5918 19.3493 14.5149 19.3664 14.4688C19.3835 14.4226 19.3935 14.1164 19.3885 13.7883C19.38 13.2315 19.375 13.1893 19.3133 13.1548C19.277 13.1345 19.2353 13.0991 19.2208 13.0762C19.2062 13.0532 19.1751 13.0344 19.1515 13.0344C19.128 13.0344 19.0818 13.0044 19.0489 12.9677C18.9155 12.8189 18.9062 12.8611 18.8946 13.6673C18.8848 14.3498 18.8772 14.4402 18.8245 14.4932C18.7709 14.5472 18.6867 14.5527 17.9061 14.5527C17.371 14.5527 17.0379 14.5401 17.0232 14.5193C17.0102 14.501 16.9565 14.4634 16.9037 14.4359C16.6855 14.3221 16.6215 14.1322 16.6203 13.5947C16.6198 13.3502 16.6065 13.2264 16.5782 13.2029C16.4022 13.0563 16.1859 12.901 16.1578 12.901C16.1358 12.901 16.1237 13.1019 16.1237 13.4696ZM36.2005 12.9798C36.1909 13.0048 36.1877 13.1137 36.1932 13.2217L36.2033 13.4182L36.4346 13.4392C36.8984 13.4814 37.1318 13.728 37.226 14.2758C37.249 14.4097 37.2617 14.5306 37.2542 14.5444C37.2467 14.5581 36.8993 14.5694 36.4823 14.5694H35.724V14.8023C35.724 15.0162 35.7301 15.0368 35.7984 15.0536C35.8393 15.0637 36.2966 15.0677 36.8147 15.0626L37.7567 15.0532L37.7672 14.8864C37.7729 14.7947 37.7618 14.5769 37.7424 14.4025C37.6881 13.9122 37.5586 13.5895 37.3136 13.3337C37.1305 13.1425 36.9747 13.0603 36.6595 12.9885C36.3692 12.9224 36.2233 12.9196 36.2005 12.9798ZM2.3322 13.4432C2.30582 14.1301 2.21833 14.3122 1.91236 14.3167C1.73494 14.3194 1.66143 14.2711 1.53817 14.0711C1.47663 13.9712 1.46486 13.9039 1.46486 13.6518C1.46486 13.3727 1.47194 13.3409 1.56495 13.2018C1.69673 13.0047 1.77744 12.9688 2.08946 12.9682L2.35048 12.9677L2.3322 13.4432ZM28.7995 13.4314C28.8904 13.4662 28.9692 13.5173 28.9748 13.5449C28.9865 13.6035 28.7439 13.8945 28.6044 13.9893L28.5084 14.0545L28.2858 13.8365C28.0275 13.5836 27.9961 13.5574 27.907 13.5219C27.8502 13.4993 27.8619 13.4871 27.9897 13.4353C28.1973 13.3512 28.5849 13.3493 28.7995 13.4314ZM24.47 13.4538C24.6115 13.4922 24.6513 13.6398 24.6513 14.1252V14.5765L24.3952 14.5642C24.1709 14.5534 24.1283 14.541 24.0531 14.464C23.9138 14.3217 23.7999 13.8755 23.8886 13.8202C23.9054 13.8097 23.9288 13.7567 23.9406 13.7023C23.9845 13.5003 24.2251 13.3874 24.47 13.4538ZM8.68705 13.9076C8.79764 14.0298 8.84041 14.2619 8.80435 14.5444C8.77196 14.7981 8.67343 14.9078 8.45931 14.9285C8.21621 14.9521 8.1118 14.8972 8.02867 14.7022C7.94217 14.4992 7.93986 14.233 8.02298 14.0483C8.1072 13.861 8.2013 13.8019 8.41515 13.8019C8.57093 13.8019 8.60256 13.8142 8.68705 13.9076ZM22.3928 13.8222C22.5526 13.8655 22.654 14.3353 22.5685 14.6361C22.5105 14.8403 22.4329 14.91 22.2437 14.9284C21.9418 14.9577 21.791 14.8257 21.7527 14.499C21.722 14.2382 21.7662 14.0504 21.8891 13.9189C21.9852 13.816 22.0178 13.802 22.1598 13.8024C22.2485 13.8026 22.3534 13.8116 22.3928 13.8222ZM31.3798 13.859C31.4739 13.9539 31.5263 14.1228 31.5263 14.3306C31.5263 14.6132 31.4968 14.7253 31.393 14.8375C31.3176 14.919 31.2751 14.9364 31.1516 14.9364C30.8244 14.9364 30.7 14.7857 30.7 14.3891C30.7 14.1303 30.756 13.9662 30.8801 13.8614C30.9743 13.7818 31.3017 13.7802 31.3798 13.859ZM3.32226 15.1617C3.29526 15.2101 3.29892 15.621 3.32672 15.6639C3.34626 15.694 3.41993 15.7043 3.56672 15.6973L3.77855 15.6872L3.78814 15.4119L3.79776 15.1367H3.56698C3.44009 15.1367 3.32996 15.1479 3.32226 15.1617ZM3.92729 15.4203V15.7039H4.15532H4.38338L4.39548 15.5501C4.40216 15.4655 4.40209 15.3379 4.39535 15.2665L4.38309 15.1367H4.15519H3.92729V15.4203ZM3.81022 16.5131C3.80149 16.5361 3.79822 17.193 3.80298 17.973L3.8116 19.3911H4.60487H5.39814L5.40779 19.1325L5.41744 18.8739H4.88721H4.35697V17.6929C4.35697 16.6468 4.35099 16.5096 4.30469 16.4916C4.2048 16.4529 3.82684 16.4694 3.81022 16.5131ZM6.24098 17.9062C6.24098 18.6954 6.23724 19.3523 6.23272 19.3661C6.22819 19.3799 6.58215 19.3951 7.01937 19.4L7.81429 19.409L7.87438 19.2666C7.90746 19.1882 7.9548 19.0811 7.97962 19.0284C8.00444 18.9757 8.0167 18.9194 8.00682 18.9032C7.99694 18.8871 7.7146 18.8739 7.37935 18.8739H6.76982V18.5569V18.2399H7.24909H7.72835V17.9563V17.6727H7.2479H6.76744L6.7769 17.3473L6.78635 17.022L7.30075 17.0128L7.81512 17.0036L7.88743 16.8534C7.9272 16.7708 7.95972 16.6823 7.95972 16.6568C7.95972 16.6313 7.97727 16.6045 7.99872 16.5973C8.0205 16.59 8.02824 16.5593 8.01627 16.5278C7.99691 16.4768 7.91074 16.4714 7.1179 16.4714H6.24098V17.9062ZM8.1663 16.4932C8.13847 16.5047 8.12498 16.5912 8.12498 16.7578V17.0053H8.4685C8.74485 17.0053 8.81579 17.0152 8.83122 17.0558C8.8418 17.0836 8.85059 17.6054 8.85079 18.2154C8.85099 18.8253 8.85138 19.3438 8.85165 19.3675C8.85201 19.3998 8.91617 19.4082 9.1083 19.4009L9.36446 19.3911L9.38099 18.2065L9.39752 17.022L9.6107 17.0146C9.87873 17.0054 9.89618 16.9981 9.92467 16.8829C9.93753 16.8309 9.96986 16.7639 9.99653 16.734C10.0232 16.7042 10.0481 16.6366 10.0518 16.5839L10.0586 16.4881L9.13309 16.4821C8.62408 16.4788 8.18904 16.4838 8.1663 16.4932ZM10.2486 16.4935C10.2165 16.5066 10.2073 16.8316 10.2073 17.9604V19.4105L10.48 19.4008L10.7527 19.3911L10.7605 18.0063C10.7649 17.2447 10.7608 16.5877 10.7517 16.5465C10.7362 16.4774 10.7171 16.4716 10.5124 16.474C10.3901 16.4755 10.2714 16.4842 10.2486 16.4935ZM11.1561 16.4923C11.1433 16.5053 11.1328 17.1666 11.1328 17.9619V19.4078H11.3972H11.6616V18.8239V18.2399H12.207C12.7498 18.2399 12.7524 18.2403 12.7548 18.315C12.7561 18.3563 12.7552 18.5929 12.7527 18.8407C12.7502 19.0885 12.7581 19.3175 12.7703 19.3495C12.7888 19.3982 12.8356 19.4078 13.0537 19.4078H13.315L13.3064 17.9479L13.2977 16.4881L13.0717 16.4781C12.9473 16.4727 12.8271 16.4837 12.8045 16.5026C12.7748 16.5275 12.7634 16.6918 12.7632 17.0965L12.7629 17.656L12.213 17.6651L11.6631 17.6743L11.6541 17.0812L11.6451 16.4881L11.4123 16.4784C11.2842 16.4731 11.169 16.4794 11.1561 16.4923ZM14.6503 16.7269C14.584 16.8708 14.4145 17.2289 14.2735 17.5225C13.8142 18.4797 13.777 18.5602 13.777 18.5977C13.777 18.6181 13.7659 18.6398 13.7522 18.6459C13.7127 18.6636 13.4134 19.3038 13.4134 19.3706C13.4134 19.3991 13.494 19.4077 13.6965 19.4008C13.9595 19.3918 13.983 19.3852 14.0259 19.3077C14.0861 19.1991 14.3058 18.7113 14.3058 18.6864C14.3058 18.6758 14.3636 18.5447 14.4341 18.3951C14.5046 18.2455 14.6115 18.0142 14.6718 17.8812C14.732 17.7482 14.7895 17.6395 14.7997 17.6398C14.8099 17.6401 14.8762 17.779 14.9472 17.9484C15.0182 18.1179 15.0966 18.2904 15.1215 18.3317L15.1667 18.4068H14.8766H14.5864L14.5415 18.5152C14.5168 18.5749 14.4683 18.6809 14.4337 18.751C14.3991 18.821 14.3793 18.8923 14.3898 18.9095C14.4003 18.9266 14.6308 18.9407 14.9019 18.9407H15.3949L15.4637 19.0991C15.6087 19.4337 15.5723 19.4078 15.898 19.4078C16.0585 19.4078 16.1898 19.3988 16.1898 19.3879C16.1898 19.3662 16.0435 19.0524 15.6932 18.3233C15.0411 16.9661 14.8677 16.5987 14.8677 16.5738C14.8677 16.5586 14.8459 16.528 14.8193 16.5057C14.7785 16.4715 14.7518 16.5064 14.6503 16.7269ZM16.307 16.5465C16.298 16.5877 16.294 17.2447 16.2981 18.0063L16.3055 19.3911L16.9789 19.4002C17.5955 19.4084 17.6695 19.4032 17.8548 19.3378C18.2183 19.2096 18.5203 18.9309 18.7013 18.5569C18.799 18.3551 18.8162 18.2819 18.828 18.0182C18.8392 17.7688 18.8288 17.6758 18.7713 17.508C18.597 16.9993 18.2292 16.6572 17.7112 16.5217C17.5743 16.4859 17.3467 16.4714 16.9211 16.4714C16.328 16.4714 16.3232 16.472 16.307 16.5465ZM20.7538 16.5228C20.4848 16.5889 20.2933 16.7006 20.0816 16.9146C19.8516 17.1472 19.7357 17.3729 19.6771 17.7025C19.591 18.1864 19.7169 18.5924 20.0634 18.9482C20.3097 19.2012 20.3811 19.2489 20.6474 19.3395C20.81 19.3948 20.9323 19.4078 21.2898 19.4078H21.7314L21.8098 19.2326C21.8529 19.1363 21.909 19.0321 21.9344 19.0011C22.0227 18.8935 21.9509 18.8739 21.4681 18.8737C20.9378 18.8735 20.8219 18.8501 20.5974 18.6978C19.9634 18.2678 20.1221 17.2691 20.8564 17.0676C20.9348 17.046 21.1663 17.0194 21.3707 17.0085L21.7424 16.9886L21.8087 16.8636C21.8451 16.7948 21.8749 16.716 21.8749 16.6884C21.8749 16.6608 21.8881 16.6382 21.9041 16.6382C21.9569 16.6382 21.9691 16.51 21.9181 16.4902C21.8246 16.454 20.9322 16.479 20.7538 16.5228ZM22.1283 16.4936C22.1162 16.5059 22.1063 17.1666 22.1063 17.9619V19.4078H22.3707H22.6351V18.9407V18.4735H22.8105C23.0021 18.4735 22.9753 18.4518 23.3454 18.9073C23.4125 18.9899 23.5348 19.1363 23.6173 19.2326L23.7673 19.4078H24.0771C24.2475 19.4078 24.3868 19.3966 24.3867 19.3828C24.3866 19.36 24.1444 19.0457 23.9688 18.8402C23.7331 18.5645 23.6267 18.4344 23.6267 18.4219C23.6267 18.414 23.6786 18.3858 23.7419 18.359C23.8836 18.2993 24.106 18.0686 24.1946 17.8895C24.2989 17.6785 24.311 17.3798 24.2246 17.1466C24.1511 16.9483 23.9788 16.7282 23.8187 16.6281C23.6037 16.4937 23.4642 16.4724 22.7976 16.4719C22.4416 16.4716 22.1404 16.4814 22.1283 16.4936ZM24.5742 16.4936C24.5621 16.5059 24.5522 17.1666 24.5522 17.9619V19.4078H25.3381H26.1241L26.2306 19.1702C26.2891 19.0395 26.337 18.9193 26.337 18.9032C26.337 18.8871 26.0544 18.8739 25.709 18.8739H25.081V18.5569V18.2399H25.5597C26.1108 18.2399 26.085 18.2578 26.0662 17.8881L26.0561 17.6893L25.5686 17.6801L25.081 17.6709V17.3381V17.0053H25.6092H26.1375L26.1582 16.9219C26.1696 16.876 26.1922 16.8384 26.2084 16.8384C26.2246 16.8384 26.238 16.8197 26.2381 16.7967C26.2382 16.7738 26.261 16.711 26.2888 16.6571C26.3846 16.4717 26.3831 16.4714 25.4512 16.4714C24.9809 16.4714 24.5863 16.4814 24.5742 16.4936ZM26.5243 16.4936C26.5122 16.5059 26.5023 17.1666 26.5023 17.9619V19.4078H27.1747C27.8783 19.4078 27.9961 19.3888 28.314 19.224C28.4568 19.15 28.8 18.8117 28.8301 18.7154C28.843 18.6741 28.8662 18.6403 28.8817 18.6403C28.8972 18.6403 28.9204 18.5916 28.9332 18.5319C28.946 18.4722 28.9732 18.4127 28.9937 18.3996C29.0492 18.364 29.0429 17.609 28.986 17.4859C28.8438 17.1783 28.7826 17.0831 28.6252 16.9236C28.2669 16.5606 27.9739 16.4714 27.1393 16.4714C26.8132 16.4714 26.5364 16.4814 26.5243 16.4936ZM29.236 16.4923C29.2231 16.5053 29.2126 17.1666 29.2126 17.9619V19.4078H29.4774H29.7422L29.7336 17.9479L29.7249 16.4881L29.4921 16.4784C29.3641 16.4731 29.2488 16.4794 29.236 16.4923ZM29.9618 16.4936C29.9497 16.5059 29.9398 16.6255 29.9398 16.7595V17.003L30.2951 17.0125L30.6504 17.022L30.6591 18.2163L30.6678 19.4106L30.9235 19.4009L31.1793 19.3911L31.1958 18.2065L31.2123 17.022L31.4551 17.0053L31.698 16.9886L31.8065 16.755C31.882 16.5927 31.9037 16.514 31.8777 16.4969C31.831 16.4663 29.992 16.4631 29.9618 16.4936ZM32.7582 16.4985C32.7271 16.5184 32.717 16.8624 32.7153 17.9578L32.7131 19.3911L32.8729 19.401L33.0327 19.4108L33.1389 19.1795C33.2373 18.9649 33.245 18.9224 33.245 18.594V18.2399L33.6334 18.2404C34.1032 18.2409 34.1393 18.2495 34.2123 18.3779C34.2967 18.5264 34.2831 18.6213 34.1584 18.7548L34.047 18.8739H33.7356H33.4243L33.3212 19.1156C33.2645 19.2486 33.225 19.3687 33.2335 19.3826C33.242 19.3965 33.447 19.4078 33.689 19.4078C34.0532 19.4078 34.154 19.3966 34.2738 19.3429C34.4646 19.2574 34.6841 19.0265 34.7476 18.8447C34.8537 18.5405 34.7835 18.1655 34.5833 17.9679L34.4718 17.8578L34.5404 17.7458C34.6395 17.584 34.6394 17.1752 34.5404 16.9886C34.4181 16.7583 34.2341 16.5949 34.0055 16.5136C33.876 16.4676 32.8263 16.4548 32.7582 16.4985ZM34.9034 16.4998C34.868 16.523 34.8619 16.7258 34.8717 17.5427L34.884 18.5569L34.9744 18.7519C35.0825 18.9849 35.3435 19.253 35.5168 19.3089C35.5853 19.331 35.6555 19.3623 35.6728 19.3785C35.69 19.3946 35.8218 19.4078 35.9655 19.4078C36.1865 19.4078 36.2582 19.3927 36.4299 19.3098C36.668 19.1949 36.8737 18.9894 36.984 18.7565C37.0617 18.5923 37.0626 18.5775 37.0626 17.5392V16.4881L36.8657 16.4779C36.7574 16.4723 36.6353 16.4761 36.5944 16.4865L36.52 16.5054L36.5104 17.5345L36.5007 18.5636L36.4181 18.6536C36.3057 18.7759 36.1125 18.8739 35.9837 18.8739C35.834 18.8739 35.606 18.7541 35.5177 18.6291C35.4451 18.5265 35.4426 18.4954 35.4265 17.5058L35.41 16.4881L35.1786 16.4795C35.0514 16.4748 34.9275 16.4839 34.9034 16.4998ZM37.2943 16.5043C37.2787 16.5298 37.267 18.315 37.2761 19.2673L37.2775 19.4105L37.5489 19.4008L37.8204 19.3911L37.8147 18.9323L37.809 18.4735H37.983C38.1732 18.4735 38.1406 18.447 38.5175 18.9073C38.5852 18.9899 38.6499 19.0649 38.6614 19.0741C38.6728 19.0833 38.739 19.1622 38.8084 19.2493L38.9345 19.4078H39.2444C39.562 19.4078 39.6314 19.3829 39.5361 19.3031C39.5062 19.2781 39.4 19.1525 39.3002 19.0241C39.2004 18.8956 39.1023 18.7755 39.0823 18.7571C39.0622 18.7388 38.9894 18.6529 38.9205 18.5663L38.7952 18.4088L38.9115 18.3597C39.2063 18.2354 39.459 17.8299 39.459 17.481C39.459 17.0275 39.1789 16.6547 38.7365 16.5191C38.5534 16.463 37.3273 16.4504 37.2943 16.5043ZM39.8115 16.4936C39.7994 16.5059 39.7895 17.1666 39.7895 17.9619V19.4078H40.5821H41.3747L41.4745 19.1923C41.6319 18.8525 41.6674 18.8739 40.9463 18.8739H40.3183V18.5578V18.2417L40.8059 18.2325L41.2934 18.2232V17.9563V17.6893L40.8047 17.6801L40.3159 17.6708L40.3254 17.3464L40.3349 17.022L40.8462 17.0116C41.3367 17.0016 41.4407 16.9809 41.4431 16.8928C41.4437 16.872 41.4801 16.7811 41.524 16.6906C41.5679 16.6001 41.5963 16.5137 41.5872 16.4987C41.5673 16.4662 39.8435 16.4613 39.8115 16.4936ZM44.3398 16.4936C44.3276 16.5059 44.3177 16.9558 44.3177 17.4934C44.3177 18.3202 44.3264 18.4994 44.3741 18.6557C44.4051 18.7574 44.4423 18.8405 44.4567 18.8405C44.4712 18.8405 44.483 18.8618 44.483 18.8878C44.483 18.9709 44.8637 19.2875 45.038 19.3494C45.3575 19.4628 45.8463 19.3937 46.0448 19.2069C46.0834 19.1706 46.1258 19.1409 46.139 19.1409C46.1954 19.1409 46.4156 18.7845 46.456 18.6277C46.5077 18.4272 46.5229 16.5487 46.4731 16.4985C46.4566 16.4818 46.3404 16.4726 46.215 16.4781L45.9869 16.4881L45.9702 17.4724C45.959 18.134 45.9405 18.4865 45.9137 18.5472C45.7735 18.8654 45.3528 18.968 45.0837 18.7496C44.8661 18.573 44.8639 18.5607 44.8554 17.5065C44.8512 16.9838 44.8405 16.5371 44.8317 16.5138C44.8146 16.4689 44.3818 16.4512 44.3398 16.4936ZM2.28404 16.5465C2.25462 16.5851 2.12935 16.8429 1.83208 17.4765C1.76647 17.6164 1.71276 17.7478 1.71276 17.7685C1.71276 17.7892 1.69788 17.8061 1.6797 17.8061C1.66153 17.8061 1.64665 17.8196 1.64665 17.8361C1.64665 17.8681 1.34372 18.5252 1.09907 19.0241C1.01806 19.1892 0.951951 19.3432 0.952149 19.3661C0.952446 19.3961 1.03015 19.4078 1.22946 19.4078C1.53966 19.4078 1.53381 19.4116 1.64391 19.1409C1.68496 19.0399 1.77096 18.8447 1.83502 18.7071C2.11937 18.0963 2.17288 17.9795 2.24372 17.8151C2.30308 17.6774 2.3282 17.6483 2.36291 17.6774C2.38707 17.6976 2.40686 17.7301 2.40686 17.7496C2.40686 17.7691 2.43532 17.8461 2.47013 17.9207C2.57791 18.1519 2.67129 18.3689 2.67129 18.3882C2.67129 18.3984 2.54816 18.4068 2.39771 18.4068H2.1241L2.0341 18.6153C1.88694 18.9564 1.86744 18.9407 2.4381 18.9407H2.93211L3.04131 19.1741L3.15055 19.4075L3.42324 19.4076C3.65322 19.4078 3.69592 19.3993 3.69592 19.3535C3.69592 19.3236 3.60668 19.1141 3.4976 18.8879C3.38853 18.6618 3.29929 18.461 3.29929 18.4417C3.29929 18.4225 3.28441 18.4068 3.26624 18.4068C3.24806 18.4068 3.23318 18.3892 3.23318 18.3677C3.23318 18.3291 3.20373 18.2636 2.87311 17.5677C2.78029 17.3724 2.70434 17.1959 2.70434 17.1756C2.70434 17.1553 2.68947 17.1388 2.67129 17.1388C2.65311 17.1388 2.63823 17.1211 2.63823 17.0996C2.63823 17.0397 2.37176 16.5048 2.34198 16.5048C2.32757 16.5048 2.30153 16.5235 2.28404 16.5465ZM42.8897 16.7647C42.8223 16.9062 42.6793 17.2097 42.5717 17.4391C42.4642 17.6685 42.2763 18.0664 42.1542 18.3233C42.0321 18.5803 41.8822 18.8956 41.8213 19.0241C41.6292 19.4287 41.6216 19.4078 41.9609 19.4078H42.2528L42.3089 19.2773C42.3397 19.2055 42.3745 19.1079 42.3863 19.0604C42.3981 19.0129 42.4211 18.974 42.4373 18.974C42.4535 18.974 42.4668 18.958 42.4668 18.9385C42.4668 18.919 42.5039 18.8209 42.5494 18.7206C42.5948 18.6203 42.632 18.5237 42.632 18.5059C42.632 18.4881 42.6469 18.4735 42.6651 18.4735C42.6833 18.4735 42.6981 18.4575 42.6981 18.4381C42.6981 18.4186 42.7338 18.3247 42.7773 18.2295C42.8209 18.1343 42.8984 17.9626 42.9495 17.8478C43.0006 17.7331 43.0505 17.6395 43.0603 17.6397C43.0819 17.6401 43.26 18.055 43.26 18.1048C43.26 18.1241 43.2732 18.1398 43.2894 18.1398C43.3055 18.1398 43.3285 18.1924 43.3405 18.2566C43.3524 18.3208 43.3801 18.3762 43.402 18.3797C43.4239 18.3832 43.3084 18.3944 43.1455 18.4047C42.8708 18.4221 42.8461 18.4295 42.8087 18.5069C42.6584 18.817 42.6329 18.8817 42.6499 18.9095C42.6604 18.9266 42.8899 18.9407 43.1599 18.9407H43.6508L43.7181 19.0825C43.7551 19.1604 43.8007 19.2656 43.8194 19.316C43.853 19.4068 43.8565 19.4078 44.1516 19.4078C44.3157 19.4078 44.4499 19.4003 44.4499 19.3912C44.4499 19.3676 44.2871 19.0168 43.9543 18.3233C43.7957 17.993 43.6555 17.6889 43.6426 17.6476C43.6297 17.6063 43.6053 17.5725 43.5883 17.5725C43.5714 17.5725 43.5575 17.5504 43.5575 17.5234C43.5575 17.4963 43.5069 17.3724 43.445 17.2481C43.3831 17.1237 43.2775 16.9056 43.2105 16.7634C43.1434 16.6211 43.0713 16.5054 43.0503 16.5061C43.0293 16.5069 42.957 16.6233 42.8897 16.7647ZM17.6442 17.0685C17.8613 17.1265 18.0744 17.2992 18.1877 17.509C18.2704 17.6623 18.2852 17.7268 18.286 17.9396C18.2877 18.3486 18.1155 18.6128 17.7289 18.7946C17.5852 18.8621 17.5102 18.8733 17.198 18.8736L16.8344 18.8739L16.8437 17.9374L16.8529 17.0009L17.1742 17.0148C17.3509 17.0224 17.5624 17.0466 17.6442 17.0685ZM23.3735 17.0324C23.3946 17.0491 23.4496 17.0719 23.4957 17.083C23.7114 17.1348 23.8204 17.5155 23.6763 17.7133C23.555 17.8798 23.3717 17.9396 22.9825 17.9396H22.6351V17.4764V17.0133L22.9851 17.0076C23.1776 17.0045 23.3523 17.0157 23.3735 17.0324ZM27.8596 17.0684C28.0544 17.1197 28.3233 17.356 28.4239 17.5642C28.4848 17.6902 28.5002 17.7763 28.4988 17.984C28.4979 18.1278 28.4816 18.2554 28.4627 18.2677C28.4437 18.2799 28.4171 18.3261 28.4035 18.3702C28.3663 18.4901 28.1331 18.7048 27.9429 18.7943C27.7977 18.8625 27.7243 18.8733 27.403 18.8736L27.0311 18.8739V17.9619C27.0311 17.4602 27.042 17.0389 27.0552 17.0255C27.0902 16.9902 27.6826 17.0218 27.8596 17.0684ZM33.8677 17.0576C34.0462 17.1476 34.1057 17.2895 34.0511 17.4952C34.0195 17.6141 33.8473 17.6727 33.5293 17.6727H33.245V17.3612C33.245 17.1899 33.255 17.0398 33.2671 17.0275C33.3119 16.9823 33.763 17.0049 33.8677 17.0576ZM38.6418 17.0688C39.0213 17.2331 39.0196 17.6923 38.6389 17.8739C38.5191 17.931 38.4426 17.9404 38.1596 17.9324L37.8228 17.9229L37.8197 17.5058C37.8181 17.2764 37.8234 17.07 37.8315 17.047C37.8571 16.9755 38.4638 16.9918 38.6418 17.0688Z" fill="black"/>
</svg>
