<svg width="39" height="23" viewBox="0 0 39 23" fill="none" xmlns="http://www.w3.org/2000/svg">
<path fill-rule="evenodd" clip-rule="evenodd" d="M19.9777 0.29703C19.9076 0.46042 19.8502 0.622253 19.8502 0.656733C19.8502 0.692055 20.0127 0.710915 20.2227 0.699962C20.5166 0.684602 20.5999 0.656539 20.6169 0.567099C20.6337 0.47902 20.594 0.453679 20.4391 0.453679C20.3294 0.453679 20.2396 0.42257 20.2396 0.384526C20.2396 0.346481 20.2908 0.331186 20.3532 0.350629C20.4156 0.370008 20.5094 0.359184 20.5615 0.326519C20.6426 0.275772 20.6388 0.247838 20.5352 0.133576C20.4686 0.0600801 20.3447 0 20.2597 0C20.138 0 20.0781 0.0630614 19.9777 0.29703ZM38.3111 0.0556081C38.2772 0.086199 38.0298 0.228395 37.7615 0.371693C37.493 0.514926 36.6461 0.975345 35.8793 1.39487C35.1126 1.81433 34.2078 2.30923 33.8687 2.49452C33.5296 2.67988 33.0477 2.94373 32.7978 3.08087C30.9669 4.08551 29.4253 4.93091 28.6948 5.33086C28.2229 5.5892 27.8359 5.82252 27.8349 5.84922C27.8338 5.87592 28.7821 5.89783 29.9422 5.89783C31.1023 5.89783 32.0515 5.91001 32.0515 5.92486C32.0515 5.9397 31.991 6.09285 31.917 6.26512C31.5 7.23631 31.1216 8.55341 30.9053 9.78651C30.7241 10.8195 30.7406 13.4092 30.9352 14.4868C31.2018 15.9624 31.6589 17.359 32.2926 18.6333C32.667 19.3863 33.2839 20.4156 33.3606 20.4156C33.4072 20.4156 33.4016 20.3516 33.2834 19.5152C33.0755 18.0449 33.0898 15.488 33.3154 13.8058C33.873 9.64788 35.3719 5.55627 37.9985 1.02188C38.2614 0.567942 38.4766 0.152371 38.4766 0.0983188C38.4766 -0.0108883 38.4053 -0.0292947 38.3111 0.0556081ZM4.67932 0.334232C4.63493 0.378563 4.59865 0.481872 4.59865 0.563858C4.59865 0.645845 4.56944 0.712924 4.53375 0.712924C4.49805 0.712924 4.46885 0.771255 4.46885 0.842547C4.46885 0.957911 4.51214 0.97217 4.86299 0.97217C5.20332 0.97217 5.25421 0.95668 5.23564 0.85875C5.22266 0.790374 5.14349 0.737164 5.03614 0.72485C4.92724 0.712276 4.85825 0.665223 4.85825 0.603458C4.85825 0.519916 4.87545 0.51687 4.95832 0.58557C5.10065 0.703527 5.24246 0.563016 5.14232 0.403256C5.05593 0.265532 4.78809 0.225608 4.67932 0.334232ZM1.74304 1.9991C1.74304 3.03725 1.7309 3.16662 1.62433 3.26293C1.46663 3.40545 1.31684 3.39825 1.15893 3.24057C1.05224 3.13402 1.02913 3.02455 1.02913 2.62486C1.02913 2.182 1.01758 2.13877 0.899332 2.13877C0.777838 2.13877 0.769531 2.182 0.769531 2.81456C0.769531 3.46747 0.775307 3.49495 0.940543 3.6247C1.05555 3.71505 1.20644 3.75906 1.40134 3.75906C1.64439 3.75906 1.72675 3.72347 1.91178 3.5387L2.13244 3.31834V2.08044V0.842547H1.93774H1.74304V1.9991ZM5.37745 1.8059V2.76926L5.08696 2.80905C4.92711 2.83089 4.75168 2.83167 4.69704 2.81074C4.64239 2.7898 4.49565 2.79175 4.37098 2.81508C4.17277 2.85222 4.14435 2.88158 4.14435 3.04905V3.24057H4.79835C5.43463 3.24057 5.45747 3.23545 5.64205 3.05112L5.83175 2.86168V1.85211V0.842547H5.6046H5.37745V1.8059ZM6.09135 2.04156V3.24057H6.28606H6.48076V2.04156V0.842547H6.28606H6.09135V2.04156ZM13.8145 1.81472V2.78689H13.5224H13.2304V2.17118V1.55547H13.0357H12.841V2.16671V2.77801L12.2082 2.79862C11.8601 2.81002 11.276 2.80938 10.9102 2.79719L10.245 2.77509V2.32232C10.245 1.9083 10.2287 1.85334 10.0553 1.6801C9.84304 1.46817 9.62401 1.43933 9.3402 1.58593C9.09195 1.71406 9.01187 1.97992 9.01187 2.67548V3.25761L8.52745 3.22657C8.26104 3.20952 7.99819 3.15832 7.94335 3.11289C7.78045 2.97782 7.81965 2.68552 8.02039 2.53957C8.18517 2.41967 8.19094 2.39964 8.10677 2.24247C7.99105 2.02658 7.95451 2.03021 7.67648 2.28466C7.37372 2.56173 7.30973 2.93459 7.50962 3.25755C7.70465 3.57272 7.88455 3.62943 8.68918 3.62943C9.52309 3.62943 9.45773 3.70948 9.48259 2.65726C9.49784 2.0098 9.50563 1.97577 9.64237 1.95633C9.81663 1.93157 9.8485 2.03812 9.8716 2.72207L9.88802 3.20816H12.6683H15.4485L15.5726 3.05514C15.6689 2.93634 15.6966 2.79836 15.6966 2.43768C15.6966 1.92302 15.616 1.74731 15.3065 1.58749C15.0458 1.45288 14.8587 1.46603 14.5069 1.64387L14.2039 1.79709V1.31982V0.842547H14.0092H13.8145V1.81472ZM20.0449 2.04156V3.24057H20.2396H20.4343V2.04156V0.842547H20.2396H20.0449V2.04156ZM23.225 1.80156V2.76874L22.8744 2.8049C22.4719 2.84638 21.9969 2.79894 21.8783 2.70542C21.7317 2.58973 21.783 2.28952 21.9731 2.15128C22.1317 2.03592 22.1414 2.00662 22.0719 1.85419C21.9719 1.63499 21.9085 1.64096 21.63 1.8958C21.2222 2.26898 21.2698 2.86019 21.7294 3.13129C21.8817 3.22112 22.2801 3.23383 24.9054 3.23253C27.7817 3.2311 27.9126 3.22585 28.0324 3.10621C28.1407 2.99804 28.1574 2.88585 28.1574 2.2684V1.55547H27.9627H27.768V2.17118V2.78689H27.3811H26.9941L26.9755 2.18738L26.9568 1.58788L26.7459 1.56759L26.5349 1.54724V2.1612V2.77509L25.8373 2.79719C25.4535 2.80938 24.8118 2.80886 24.4111 2.79615L23.6827 2.77302L23.6648 1.82398L23.6469 0.874953L23.436 0.854667L23.225 0.834316V1.80156ZM14.6582 1.10179C14.6582 1.27464 14.6798 1.29623 14.8529 1.29623C15.026 1.29623 15.0476 1.27464 15.0476 1.10179C15.0476 0.928941 15.026 0.907358 14.8529 0.907358C14.6798 0.907358 14.6582 0.928941 14.6582 1.10179ZM26.5469 1.08559C26.563 1.22558 26.6057 1.26823 26.7459 1.2843C26.9062 1.30277 26.9243 1.28469 26.9243 1.10607C26.9243 0.927515 26.9042 0.907358 26.7254 0.907358C26.5465 0.907358 26.5284 0.925441 26.5469 1.08559ZM4.59865 1.87953V2.72207H4.8258H5.05295V1.87953V1.03698H4.8258H4.59865V1.87953ZM22.4639 1.44205C22.3393 1.60194 22.1894 1.96119 22.2239 2.01699C22.268 2.08816 23.0303 2.09302 23.0303 2.02211C23.0303 1.92081 22.8723 1.81472 22.7215 1.81472C22.6303 1.81472 22.5856 1.78698 22.6108 1.74608C22.6356 1.70609 22.7343 1.69527 22.8475 1.72009C23.0347 1.76118 23.0388 1.75716 22.9614 1.6105C22.8276 1.35689 22.5923 1.27724 22.4639 1.44205ZM2.7656 1.6044C2.24718 1.92541 2.2843 2.92655 2.82298 3.15132C2.94064 3.20038 3.12788 3.24057 3.23905 3.24057C3.56582 3.24057 3.43051 3.39981 3.08465 3.42236C2.78397 3.44193 2.78144 3.44401 2.78144 3.67344V3.90475L3.14929 3.87429C3.46082 3.8485 3.54532 3.81233 3.70095 3.63838C3.87968 3.43863 3.88474 3.4129 3.88474 2.70309C3.88474 1.90273 3.8362 1.7639 3.49463 1.58749C3.25002 1.46117 2.98704 1.46726 2.7656 1.6044ZM16.3175 1.61678C16.0574 1.78801 15.9612 1.98524 15.9585 2.35265C15.9544 2.90854 16.2556 3.24057 16.7642 3.24057C16.891 3.24057 16.9946 3.26915 16.9946 3.30415C16.9946 3.37123 16.8309 3.42016 16.5078 3.44965C16.3384 3.46507 16.3104 3.49579 16.2922 3.68614L16.2713 3.90495L16.6645 3.87656C17.0934 3.84558 17.339 3.68796 17.4122 3.39644L17.4514 3.24057H18.4473C19.3566 3.24057 19.4582 3.2289 19.6143 3.10621C19.7804 2.97575 19.7853 2.95157 19.7853 2.26366V1.55547H19.5931H19.4008L19.3822 2.15498L19.3635 2.75448L18.4062 2.77243L17.4489 2.79032V2.43639C17.4489 1.97195 17.3682 1.7779 17.1098 1.62054C16.8417 1.45735 16.5618 1.45599 16.3175 1.61678ZM3.37664 2.0516C3.46413 2.13061 3.49534 2.25226 3.49534 2.51377V2.86868L3.25645 2.82992C2.94681 2.77976 2.82038 2.64722 2.82038 2.37261C2.82038 1.98271 3.1134 1.81368 3.37664 2.0516ZM15.2471 2.11894C15.2836 2.21493 15.3048 2.39614 15.2941 2.52168C15.2769 2.72499 15.25 2.75487 15.0479 2.79583C14.9231 2.82111 14.6822 2.82538 14.5125 2.80536C14.2123 2.76984 14.2039 2.76284 14.2039 2.54961C14.2039 2.359 14.2437 2.30514 14.5087 2.13735C14.9022 1.88815 15.1568 1.8818 15.2471 2.11894ZM16.9585 2.08841C17.0166 2.17124 17.0595 2.36749 17.0595 2.55052V2.86868L16.8161 2.82973C16.5481 2.78689 16.3456 2.59025 16.3456 2.37287C16.3456 2.16204 16.5269 1.94434 16.7025 1.94434C16.7891 1.94434 16.9021 2.00798 16.9585 2.08841ZM12.841 3.62943C12.841 3.80229 12.8626 3.82387 13.0357 3.82387C13.2088 3.82387 13.2304 3.80229 13.2304 3.62943C13.2304 3.45658 13.2088 3.435 13.0357 3.435C12.8626 3.435 12.841 3.45658 12.841 3.62943ZM19.1796 3.47823C19.1558 3.50195 19.1363 3.58944 19.1363 3.67266C19.1363 3.79749 19.1703 3.82387 19.331 3.82387C19.4558 3.82387 19.5257 3.79088 19.5257 3.73197C19.5257 3.68141 19.5434 3.59392 19.5651 3.53753C19.5955 3.45833 19.561 3.435 19.4137 3.435C19.3087 3.435 19.2034 3.45444 19.1796 3.47823ZM27.5733 3.62943C27.5733 3.80229 27.595 3.82387 27.768 3.82387C27.9411 3.82387 27.9627 3.80229 27.9627 3.62943C27.9627 3.45658 27.9411 3.435 27.768 3.435C27.595 3.435 27.5733 3.45658 27.5733 3.62943ZM8.10326 4.08311C8.10326 4.25596 8.12487 4.27755 8.29796 4.27755C8.47105 4.27755 8.49266 4.25596 8.49266 4.08311C8.49266 3.91026 8.47105 3.88868 8.29796 3.88868C8.12487 3.88868 8.10326 3.91026 8.10326 4.08311ZM8.62247 4.08739C8.62247 4.26601 8.64057 4.28409 8.80094 4.26562C8.94112 4.24955 8.98383 4.2069 8.99993 4.06691C9.01842 3.90676 9.00031 3.88868 8.82145 3.88868C8.64265 3.88868 8.62247 3.90884 8.62247 4.08739ZM0.769531 11.8281V17.8879H2.06754H3.36554V15.3603V12.8326H5.4833H7.60106L7.56083 12.5896C7.5387 12.456 7.52026 11.9893 7.51987 11.5526L7.51916 10.7587H5.44235H3.36554V9.39764V8.0366H5.70195H8.03836V6.9024V5.76821H4.40395H0.769531V11.8281ZM11.2758 5.94644C11.2377 6.0445 10.9495 6.81005 10.6353 7.64773C10.3212 8.48542 9.33098 11.1168 8.43477 13.4953C7.5385 15.8738 6.80526 17.8358 6.80526 17.8552C6.80526 17.8746 7.43778 17.8826 8.21093 17.873L9.61661 17.8555L10.0119 16.6889L10.4072 15.5223L12.7243 15.5053L15.0414 15.4883L15.4227 16.6719L15.804 17.8555L17.2754 17.873C18.0847 17.8825 18.7469 17.865 18.7469 17.8342C18.7469 17.8033 18.3793 16.7747 17.9301 15.5484C17.4808 14.3221 17.0017 13.0125 16.8653 12.6382C16.729 12.2639 16.393 11.3452 16.1188 10.5966C15.8446 9.84808 15.5088 8.92938 15.3724 8.55509C15.236 8.18081 15.033 7.62667 14.9212 7.32368C14.8095 7.02069 14.6569 6.59779 14.5821 6.38391C14.3444 5.70404 14.5262 5.76821 12.8371 5.76821H11.345L11.2758 5.94644ZM19.5257 11.8227V17.8879L21.9108 17.8868C24.3472 17.8857 25.2073 17.8359 25.9101 17.6558C27.619 17.2176 28.6212 15.8802 28.5287 14.1613C28.4626 12.9334 27.8359 12.06 26.7464 11.6776L26.4061 11.5581L26.7379 11.403C27.7242 10.9416 28.3284 9.69467 28.1555 8.477C28.0055 7.41973 27.4861 6.71951 26.5006 6.24593C25.6574 5.8406 25.4446 5.81714 22.3326 5.78577L19.5257 5.75751V11.8227ZM24.7306 8.12073C25.1735 8.33791 25.3613 8.60519 25.4109 9.08862C25.456 9.52817 25.3462 9.92598 25.1036 10.2019C24.785 10.5642 24.4975 10.6405 23.3062 10.6784L22.2515 10.712V9.30282V7.89363L23.3062 7.91651C24.3063 7.93822 24.3799 7.94878 24.7306 8.12073ZM13.0609 9.39887C13.2222 9.91509 13.5688 10.9936 13.8312 11.7957L14.3082 13.2539L12.7537 13.2713C11.8988 13.2809 11.19 13.2794 11.1788 13.2682C11.1675 13.257 11.5077 12.2047 11.9347 10.9298C12.3618 9.65488 12.7112 8.56501 12.7112 8.50785C12.7112 8.31542 12.7665 8.45645 13.0609 9.39887ZM24.7826 12.7269C24.9076 12.7934 25.0783 12.91 25.1621 12.986C25.7375 13.5082 25.7595 14.6958 25.204 15.2506C24.8549 15.5992 24.5133 15.6855 23.3062 15.7301L22.2515 15.769V14.1659V12.5629L23.4035 12.5844C24.376 12.6026 24.5909 12.6248 24.7826 12.7269ZM2.14237 19.8161C2.0482 19.9957 2.16664 20.2211 2.35524 20.2211C2.56247 20.2211 2.68493 20.0155 2.58674 19.8323C2.50042 19.6713 2.22369 19.6612 2.14237 19.8161ZM20.1531 19.7459C20.1293 19.7696 20.1098 19.8711 20.1098 19.9715C20.1098 20.1135 20.1469 20.1631 20.2776 20.1959C20.3887 20.2237 20.4792 20.2041 20.5456 20.1378C20.612 20.0715 20.6316 19.9811 20.6038 19.8702C20.5709 19.7396 20.5213 19.7026 20.379 19.7026C20.2786 19.7026 20.1769 19.7221 20.1531 19.7459ZM9.07677 20.9271C9.07677 22.247 9.03783 22.1655 9.66846 22.1655C10.2983 22.1655 10.5697 21.8882 10.5692 21.2451C10.569 20.8386 10.3942 20.504 10.1503 20.4428C10.0603 20.4203 9.87004 20.4129 9.72752 20.4265L9.46844 20.4511L9.50868 20.1093L9.54892 19.7675H9.31287H9.07677V20.9271ZM15.2423 20.9665V22.1655H15.4694H15.6966V21.4893C15.6966 20.8701 15.7075 20.8097 15.8264 20.772C15.8978 20.7494 16.0146 20.7494 16.086 20.772C16.2272 20.8167 16.2499 20.9858 16.2187 21.7604L16.2025 22.1655H16.4363H16.6701L16.668 21.4363C16.6667 20.9411 16.6389 20.6716 16.5816 20.5963C16.447 20.4195 16.1662 20.3404 15.9167 20.4093L15.6966 20.4699V20.1187V19.7675H15.4694H15.2423V20.9665ZM18.4224 20.9265C18.4224 22.2545 18.3735 22.1629 19.0826 22.1646C19.5194 22.1657 19.7938 21.9817 19.9185 21.6043C20.0101 21.3271 19.9593 20.8672 19.8122 20.6431C19.6837 20.4472 19.3344 20.3403 19.0702 20.416L18.8767 20.4713V20.1194V19.7675H18.6496H18.4224V20.9265ZM26.7296 20.9665V22.1655H26.9568H27.1839V21.8066V21.4477L27.4631 21.7904C27.6787 22.055 27.7895 22.1377 27.9498 22.1533C28.1196 22.17 28.1574 22.1506 28.1574 22.0468C28.1574 21.977 28.0658 21.822 27.9538 21.7025C27.5253 21.2449 27.5252 21.2435 27.8686 20.8233L28.1754 20.448L27.9283 20.4272C27.6721 20.4056 27.6853 20.3956 27.2671 20.9302C27.2034 21.0116 27.1876 20.9085 27.186 20.3994L27.1839 19.7675H26.9568H26.7296V20.9665ZM0.769531 21.0637V22.1655H0.931782C1.0904 22.1655 1.09403 22.1546 1.09403 21.6794V21.1933H1.48772C1.87894 21.1933 1.88134 21.1922 1.86089 21.0151C1.84149 20.8464 1.82046 20.8358 1.46721 20.8174L1.09403 20.7979V20.5744V20.3508H1.51588H1.93774V20.1563V19.9619H1.35363H0.769531V21.0637ZM5.34072 20.1887C5.30989 20.3529 5.2642 20.4156 5.17555 20.4156C5.08806 20.4156 5.05295 20.462 5.05295 20.5776C5.05295 20.6964 5.08754 20.7396 5.18275 20.7396C5.30327 20.7396 5.31255 20.7828 5.31255 21.3453C5.31255 22.0683 5.37661 22.1655 5.85311 22.1655C6.13321 22.1655 6.15625 22.1532 6.15625 22.0034C6.15625 21.8734 6.12393 21.8414 5.99238 21.8414C5.78334 21.8414 5.70195 21.6405 5.70195 21.1243C5.70195 20.7401 5.70221 20.7396 5.89665 20.7396C6.06105 20.7396 6.09135 20.7144 6.09135 20.5776C6.09135 20.4408 6.06105 20.4156 5.89665 20.4156C5.7174 20.4156 5.70195 20.3975 5.70195 20.1887C5.70195 19.9911 5.68144 19.9619 5.54262 19.9619C5.41198 19.9619 5.3757 20.0027 5.34072 20.1887ZM7.29201 21.0064C7.07784 21.5833 6.89222 22.0821 6.8795 22.1147C6.86685 22.1474 6.9666 22.1649 7.10127 22.1536C7.31628 22.1356 7.35542 22.1055 7.4222 21.9062L7.49826 21.6794H7.90856H8.31886L8.39492 21.9062C8.46138 22.1044 8.50143 22.1357 8.71125 22.1533C8.941 22.1727 8.94963 22.1662 8.909 22.0045C8.88564 21.9116 8.71488 21.4212 8.52953 20.9149L8.19257 19.9943L7.93699 19.9759L7.68141 19.9575L7.29201 21.0064ZM13.2304 21.0637V22.1655H13.7724C14.2273 22.1655 14.3494 22.142 14.5315 22.0194C14.8499 21.8052 15.0013 21.5054 15.0013 21.0891C15.0013 20.2931 14.6357 19.9619 13.757 19.9619H13.2304V21.0637ZM21.7323 21.0637V22.1655L22.2677 22.1652C22.684 22.165 22.8494 22.1369 23.0106 22.0387C23.3206 21.85 23.3803 21.3577 23.1244 21.102C23.0448 21.0226 23.0453 20.985 23.1282 20.8262C23.2433 20.6059 23.249 20.4743 23.153 20.2637C23.0484 20.0345 22.8307 19.9619 22.2485 19.9619H21.7323V21.0637ZM14.0884 20.3536C14.4015 20.4405 14.5284 20.6298 14.5284 21.0102C14.5284 21.5406 14.3276 21.7766 13.8763 21.7766H13.6847V21.0313C13.6847 20.2174 13.6723 20.2382 14.0884 20.3536ZM22.7209 20.4377C22.7833 20.5357 22.784 20.7244 22.722 20.7597C22.6952 20.7749 22.5639 20.8072 22.43 20.8313L22.1866 20.8751V20.5733V20.2715L22.4299 20.3171C22.5636 20.3421 22.6946 20.3964 22.7209 20.4377ZM3.60574 20.3917C3.58315 20.4143 3.40305 20.429 3.2055 20.4244L2.84634 20.4161V21.2908V22.1655H3.07122H3.2961L3.3146 21.5012L3.33309 20.8368L3.57647 20.8167C3.8066 20.7977 3.81984 20.7845 3.81984 20.5737C3.81984 20.3655 3.71834 20.2793 3.60574 20.3917ZM4.24176 20.4199C3.99644 20.4929 3.88474 20.6436 3.88474 20.9016C3.88474 21.1724 3.988 21.2921 4.35527 21.4473C4.67406 21.582 4.70113 21.617 4.60436 21.7696C4.56107 21.8378 4.46521 21.8491 4.21132 21.8154L3.87559 21.7709L3.89636 21.952C3.91596 22.1226 3.93764 22.1342 4.27071 22.1531C4.77745 22.1818 4.91731 22.1305 5.02336 21.8771C5.17327 21.5187 5.04919 21.278 4.61578 21.0866C4.30913 20.9512 4.27278 20.9166 4.34521 20.8294C4.40862 20.7531 4.49682 20.7388 4.70852 20.7705C4.98623 20.8121 4.98805 20.811 4.98805 20.614C4.98805 20.438 4.9667 20.4156 4.79867 20.4156C4.69451 20.4156 4.57035 20.4035 4.52284 20.3888C4.47527 20.374 4.34885 20.388 4.24176 20.4199ZM17.2219 20.3989C17.0126 20.4294 16.9323 20.5105 16.9307 20.693C16.9298 20.7912 16.9797 20.8056 17.2668 20.7902C17.5698 20.7738 17.6123 20.7884 17.6868 20.9341C17.7691 21.0949 17.7672 21.0964 17.432 21.1394C17.1805 21.1717 17.0567 21.2264 16.9471 21.3537C16.7654 21.5646 16.7581 21.837 16.9291 22.0203C17.0452 22.1447 17.1247 22.1584 17.7079 22.1543C18.3388 22.1498 18.3575 22.1454 18.3575 22.0025C18.3575 21.9215 18.3137 21.8385 18.2602 21.818C18.1849 21.7891 18.1628 21.6634 18.1628 21.2638C18.1628 20.8182 18.1426 20.7248 18.0168 20.5871C17.8645 20.4206 17.5633 20.3492 17.2219 20.3989ZM23.8091 20.4073C23.6189 20.4414 23.5785 20.4782 23.5606 20.6343L23.5393 20.8207L23.8405 20.7756C24.1709 20.7261 24.3283 20.8007 24.3283 21.0068C24.3283 21.0974 24.281 21.1285 24.1433 21.1285C23.8731 21.1285 23.5562 21.2542 23.4833 21.3903C23.3896 21.5651 23.406 21.8577 23.5184 22.0181C23.6088 22.147 23.6711 22.1584 24.2593 22.1543C24.8312 22.1502 24.9049 22.1364 24.9333 22.0278C24.9512 21.9598 24.9232 21.8824 24.8701 21.8528C24.8131 21.8209 24.7733 21.6975 24.7707 21.545C24.7591 20.8597 24.709 20.6072 24.5668 20.5174C24.3803 20.3996 24.0889 20.3572 23.8091 20.4073ZM25.6912 20.4113C25.602 20.4374 25.4195 20.4452 25.2856 20.4287L25.0422 20.3985V21.282V22.1655H25.2694H25.4965V21.4919C25.4965 20.8335 25.5 20.8176 25.6537 20.7791C26.0107 20.6897 26.0784 20.825 26.0797 21.6308L26.0806 22.1655H26.2753H26.47V21.4483C26.47 21.0538 26.4414 20.6777 26.4065 20.6125C26.3716 20.5473 26.2504 20.4618 26.1372 20.4224C25.9107 20.3436 25.9212 20.3438 25.6912 20.4113ZM2.13244 21.2905V22.1655H2.35959H2.58674V21.2905V20.4156H2.35959H2.13244V21.2905ZM10.7642 21.1464C10.7642 22.15 10.7761 22.1648 11.5782 22.1567L12.192 22.1506V21.2831V20.4156H11.9648H11.7377V21.091V21.7663L11.5315 21.8115C11.2205 21.8797 11.1536 21.7393 11.1536 21.0189V20.4156H10.9589H10.7642V21.1464ZM20.1098 21.2905V22.1655H20.337H20.5641V21.2905V20.4156H20.337H20.1098V21.2905ZM8.13351 21.1184C8.17829 21.3219 8.17718 21.3229 7.91246 21.3229C7.6548 21.3229 7.64786 21.3173 7.69082 21.1447C7.71516 21.0467 7.77707 20.8655 7.82841 20.7421L7.92174 20.5178L8.00513 20.7159C8.05102 20.8248 8.10878 21.0059 8.13351 21.1184ZM9.98537 20.8692C10.0767 20.9604 10.1152 21.0853 10.1152 21.2905C10.1152 21.6244 9.95182 21.8414 9.70052 21.8414C9.57377 21.8414 9.53749 21.7986 9.50147 21.6069C9.4772 21.4778 9.47753 21.2518 9.50219 21.1046C9.56657 20.7198 9.74751 20.6317 9.98537 20.8692ZM19.3507 20.8206C19.4108 20.8652 19.4776 21.0329 19.4992 21.1933C19.5489 21.5636 19.3636 21.8414 19.0667 21.8414H18.8767V21.3283C18.8767 20.9785 18.9025 20.8048 18.9578 20.7825C19.1019 20.7245 19.2388 20.7377 19.3507 20.8206ZM22.7337 21.2951C22.9443 21.5055 22.7933 21.7513 22.43 21.7897L22.1866 21.8154V21.5043C22.1866 21.1933 22.1866 21.1933 22.4092 21.1933C22.5315 21.1933 22.6775 21.2391 22.7337 21.2951ZM17.731 21.596C17.7521 21.6769 17.7341 21.7614 17.6898 21.7895C17.5575 21.8734 17.3172 21.847 17.2777 21.7442C17.2123 21.5742 17.3068 21.4525 17.5042 21.4525C17.6449 21.4525 17.703 21.4893 17.731 21.596ZM24.3164 21.6308C24.3007 21.7676 24.2569 21.8135 24.128 21.8285C24.0347 21.8393 23.9232 21.8034 23.8768 21.7475C23.7588 21.6056 23.8984 21.4525 24.1459 21.4525C24.3161 21.4525 24.3347 21.4721 24.3164 21.6308Z" fill="black"/>
</svg>
