<svg width="63" height="20" viewBox="0 0 63 20" fill="none" xmlns="http://www.w3.org/2000/svg">
<path d="M7.61483 1.06483C9.4955 0.800616 11.4483 1.1085 13.1585 1.93607C13.436 2.08128 13.754 2.18937 13.9606 2.43611C14.1168 2.6359 14.0076 2.91759 13.8491 3.08135C13.6404 3.26586 13.3705 3.11629 13.1596 3.02021C11.7739 2.30619 10.2222 1.85965 8.65406 1.92515C7.393 1.97428 6.15489 2.34767 5.0501 2.95143C4.87307 3.04205 4.69494 3.14577 4.49606 3.17961C4.07316 3.15341 3.87755 2.51035 4.27313 2.29745C5.28067 1.65548 6.43355 1.24279 7.61483 1.06483Z" fill="black"/>
<path d="M23.5387 1.10741C23.9442 0.815901 24.3736 1.51137 23.9387 1.74719C23.5344 2.01905 23.1246 1.34323 23.5387 1.10741Z" fill="black"/>
<path d="M24.6479 1.14125C24.8981 0.886867 25.3735 1.18056 25.262 1.51246C25.214 1.78213 24.838 1.89677 24.6446 1.70461C24.4774 1.56486 24.4774 1.27445 24.6479 1.14125Z" fill="black"/>
<path d="M45.8291 1.09758C46.1329 0.892326 46.5493 1.29956 46.3449 1.60635C46.2258 1.85746 45.8226 1.86401 45.6936 1.62055C45.5789 1.44804 45.6455 1.19148 45.8291 1.09758Z" fill="black"/>
<path d="M46.9416 1.12378C47.1951 0.904336 47.6278 1.17837 47.536 1.50045C47.4989 1.77121 47.1306 1.89568 46.9296 1.71553C46.7416 1.57687 46.7503 1.25589 46.9416 1.12378Z" fill="black"/>
<path d="M40.3226 1.57906C40.5182 1.57906 40.7149 1.57906 40.9116 1.57906C40.9084 2.90558 40.9171 4.23319 40.9073 5.5597C40.9084 6.05428 40.7018 6.63402 40.186 6.7956C39.6036 6.94299 38.9938 6.8491 38.4005 6.8753C38.3108 7.19519 38.1961 7.5271 37.9404 7.75528C37.618 8.07299 37.1558 8.16579 36.7241 8.21274C36.723 8.02823 36.723 7.84481 36.723 7.66029C37.3044 7.6865 37.8202 7.24323 37.8355 6.65367C37.8923 5.48764 37.8399 4.31834 37.8628 3.15123C38.0562 3.15123 38.2507 3.15123 38.4453 3.15123C38.4529 4.19606 38.4474 5.2409 38.4485 6.28574C38.9151 6.26936 39.3905 6.33487 39.8506 6.24534C40.2385 6.13944 40.3237 5.69072 40.3205 5.34353C40.3259 4.08907 40.3205 2.83461 40.3226 1.57906Z" fill="black"/>
<path d="M41.9935 1.57906C42.188 1.57906 42.3814 1.58015 42.577 1.58015C42.577 3.34447 42.5792 5.10989 42.5759 6.8753C42.3814 6.87421 42.1891 6.8753 41.9957 6.8753C41.9891 5.10989 41.9946 3.34447 41.9935 1.57906Z" fill="black"/>
<path d="M60.7018 5.2278C60.7018 4.01155 60.6985 2.79531 60.7018 1.57906C60.8952 1.57906 61.0897 1.57906 61.2853 1.57906C61.2864 2.87064 61.2853 4.16222 61.2853 5.4538C61.2853 5.87523 61.2045 6.35015 60.8602 6.63402C60.5958 6.85456 60.2341 6.87093 59.9062 6.8753C57.9633 6.87749 56.0192 6.86875 54.0763 6.87967C53.9867 7.20939 53.861 7.54675 53.5955 7.77602C53.2731 8.07626 52.8262 8.16579 52.4044 8.21601C52.4011 8.0315 52.3989 7.8459 52.3967 7.66139C52.9016 7.68541 53.3441 7.36442 53.4818 6.88076C52.9037 6.84582 52.2514 6.98011 51.7498 6.61982C50.7018 5.85558 50.7652 3.98863 51.9039 3.33683C52.6196 2.92959 53.7364 3.16324 54.0118 4.00609C54.2413 4.74414 54.0883 5.53241 54.1331 6.29229C54.6139 6.29447 55.0948 6.29011 55.5756 6.29556C55.0958 5.61975 55.0926 4.58583 55.6903 3.9788C56.287 3.38159 57.442 3.44928 57.9032 4.18078C58.2988 4.8162 58.254 5.68962 57.8092 6.29011C58.1993 6.28574 58.5894 6.28901 58.9807 6.28683C59.3118 4.91227 58.5075 3.35539 57.1262 2.95361C57.1262 2.75163 57.1262 2.55075 57.1284 2.34877C58.1512 2.61953 59.0528 3.39033 59.3992 4.40023C59.621 5.00508 59.6298 5.65796 59.597 6.29338C59.8866 6.28246 60.2242 6.3305 60.4581 6.11651C60.6952 5.88833 60.6876 5.53132 60.7018 5.2278ZM52.0984 3.87399C51.458 4.4166 51.4569 5.51385 52.0525 6.08922C52.4623 6.4375 53.0414 6.24316 53.5299 6.28574C53.5179 5.64814 53.555 5.00835 53.5124 4.37184C53.4184 3.74516 52.5683 3.47767 52.0984 3.87399ZM56.4585 4.10435C55.792 4.33035 55.7275 5.23435 55.958 5.79662C56.1733 6.384 57.1131 6.46807 57.4093 5.91016C57.6125 5.48 57.6212 4.95376 57.4541 4.5105C57.3054 4.12291 56.8301 3.98535 56.4585 4.10435Z" fill="black"/>
<path d="M62.3726 1.57906C62.565 1.57906 62.7584 1.58015 62.9518 1.58015C62.9507 3.34447 62.9551 5.10989 62.9485 6.8753C62.7562 6.8753 62.565 6.8753 62.3737 6.8753C62.3715 5.10989 62.3726 3.34447 62.3726 1.57906Z" fill="black"/>
<path d="M34.2752 1.91969C34.5233 1.77558 34.8675 1.99066 34.8315 2.27889C34.8293 2.58241 34.4118 2.73853 34.202 2.52891C34.0042 2.3706 34.0523 2.0256 34.2752 1.91969Z" fill="black"/>
<path d="M35.4685 1.90113C35.9144 1.69806 36.2094 2.44812 35.7461 2.59769C35.2981 2.80622 35.0118 2.05508 35.4685 1.90113Z" fill="black"/>
<path d="M22.5399 3.06279C22.7913 2.65774 23.2437 2.37824 23.7278 2.38479C24.3179 2.37715 24.908 2.38698 25.4981 2.3837C25.5035 3.3008 25.4882 4.2179 25.5046 5.13391C25.5123 5.58481 25.7243 6.09795 26.1898 6.23988C26.5023 6.32504 26.875 6.33596 27.1504 6.14053C27.3842 5.95493 27.4006 5.6263 27.4148 5.35117C27.4224 4.62186 27.4137 3.89255 27.417 3.16324C27.6137 3.16433 27.8115 3.16433 28.0082 3.16542C28.006 3.9253 28.0104 4.68518 28.0082 5.44506C28.0115 5.7322 27.9535 6.01498 27.8705 6.28901C28.2049 6.28683 28.5393 6.28792 28.8747 6.28792C28.7786 5.72456 28.8015 5.1077 29.1195 4.61313C29.6954 3.6338 31.34 3.61087 31.9443 4.57164C32.2744 5.07604 32.2995 5.71364 32.1913 6.29011C32.6907 6.28683 33.1912 6.28574 33.6917 6.29011C33.1857 5.57608 33.165 4.53233 33.6698 3.81394C34.3189 2.90121 35.9308 2.94488 36.475 3.94495C37.0454 4.94284 36.6826 6.56633 35.4401 6.82399C34.2763 6.93863 33.0983 6.84255 31.929 6.87749C31.3204 7.81533 29.7457 7.82188 29.137 6.88185C28.1688 6.85238 27.1984 6.90696 26.2313 6.85347C25.5866 6.82726 25.0806 6.30867 24.9113 5.71146C24.4337 6.4375 23.2349 6.53248 22.6918 5.83374C22.0755 5.06622 22.0504 3.8991 22.5399 3.06279ZM23.2317 3.08681C22.7224 3.62615 22.6831 4.48648 22.9497 5.14919C23.1169 5.58591 23.5748 5.95056 24.0622 5.82501C24.5058 5.75622 24.7583 5.31951 24.8304 4.91118C24.955 4.22227 24.8763 3.51697 24.8981 2.82042C24.3474 2.87391 23.6731 2.6501 23.2317 3.08681ZM34.5878 3.74734C34.2239 3.91002 34.0414 4.30852 33.9911 4.683C33.9245 5.15138 33.9638 5.67871 34.2763 6.05646C34.7014 6.56305 35.6642 6.48008 35.9264 5.84684C36.1395 5.32715 36.1581 4.70702 35.9384 4.18624C35.7242 3.67747 35.0609 3.52134 34.5878 3.74734ZM30.2331 4.44172C29.8462 4.55963 29.6102 4.94503 29.5523 5.32824C29.4812 5.76932 29.4911 6.26063 29.7402 6.64712C30.0243 7.08711 30.68 7.16899 31.1073 6.89823C31.4001 6.7028 31.5127 6.33814 31.5488 6.00515C31.5925 5.55534 31.5739 5.04984 31.2712 4.68518C31.0264 4.38385 30.5849 4.33472 30.2331 4.44172Z" fill="black"/>
<path d="M44.6172 3.58903C44.7713 2.99073 45.2642 2.43611 45.91 2.39353C46.5416 2.36733 47.1754 2.39135 47.8081 2.3837C47.8125 3.29534 47.8005 4.20807 47.8125 5.11971C47.8202 5.57717 48.0311 6.10123 48.5075 6.24207C48.937 6.36762 49.6112 6.32504 49.7194 5.78679C49.8527 4.91773 49.7511 4.0312 49.785 3.1545C49.9773 3.15232 50.1707 3.15123 50.3641 3.14904C50.3652 3.97989 50.3805 4.81074 50.3576 5.64159C50.3401 6.1045 50.1357 6.63402 49.6571 6.79123C49.2025 6.91897 48.7108 6.89823 48.2529 6.80215C47.7284 6.67441 47.3787 6.20604 47.2202 5.71474C46.7678 6.39273 45.6751 6.52811 45.0981 5.93855C44.5025 5.33043 44.402 4.38167 44.6172 3.58903ZM45.1593 3.80521C45.0183 4.43516 45.1112 5.19505 45.6171 5.64377C46.0619 6.04009 46.8421 5.82391 47.0323 5.26383C47.3262 4.4843 47.1645 3.6327 47.2049 2.82042C46.8083 2.82915 46.4094 2.79531 46.0138 2.83898C45.5461 2.91759 45.2565 3.37395 45.1593 3.80521Z" fill="black"/>
<path d="M8.45518 3.18726C8.65297 3.09991 8.88027 3.14468 9.09117 3.13376C10.8287 3.14686 12.5815 3.66437 13.9759 4.71685C14.6993 5.25837 15.3353 5.91781 15.862 6.65149C16.0707 6.92007 15.8784 7.36442 15.5418 7.39827C15.2337 7.4605 15.0665 7.15917 14.9047 6.95828C13.4677 5.09351 11.1095 3.97116 8.75023 4.09999C8.23007 4.20371 7.98092 3.4067 8.45518 3.18726Z" fill="black"/>
<path d="M6.6226 3.44601C6.98868 3.24294 7.43344 3.6327 7.29356 4.02247C7.18647 4.36638 6.77231 4.36202 6.49256 4.47774C4.98672 4.9494 3.77374 6.07066 2.90498 7.35678C2.75527 7.56858 2.599 7.82843 2.31598 7.86773C1.95536 7.85136 1.65922 7.42229 1.88542 7.10021C2.51814 6.25299 3.19129 5.41013 4.05786 4.78781C4.84356 4.22445 5.7003 3.74516 6.6226 3.44601Z" fill="black"/>
<path d="M2.79243 3.51916C3.08857 3.27023 3.58797 3.54209 3.54644 3.92421C3.56392 4.2583 3.1585 4.52251 2.86455 4.34782C2.55092 4.20371 2.51158 3.71786 2.79243 3.51916Z" fill="black"/>
<path d="M8.16013 5.20924C9.88562 4.93193 11.7171 5.38611 13.0995 6.46042C14.4785 7.50854 15.3626 9.17787 15.4271 10.9116C15.4533 11.7894 15.4118 12.7229 14.9648 13.5035C14.6119 14.1411 13.8458 14.4916 13.1312 14.4042C12.7072 14.3344 12.6154 13.6946 12.9957 13.5024C13.2852 13.3943 13.624 13.4653 13.895 13.2939C14.39 13.0155 14.5561 12.4117 14.5966 11.8833C14.6796 10.5579 14.342 9.1746 13.5125 8.12103C12.8317 7.24542 11.8373 6.64057 10.7697 6.36326C9.27476 5.97021 7.60172 6.06847 6.25324 6.86875C4.73319 7.74436 3.75079 9.39405 3.5377 11.1169C3.3858 12.1792 3.5377 13.259 3.82291 14.2852C3.89722 14.5014 3.89394 14.7755 3.68959 14.9207C3.43716 15.139 3.00442 14.984 2.94541 14.6575C2.43181 12.8681 2.36078 10.8909 3.07218 9.14294C3.89941 7.03907 5.95928 5.57171 8.16013 5.20924Z" fill="black"/>
<path d="M9.34251 7.35023C9.60041 7.15371 10.0124 7.33167 10.0648 7.6461C10.1708 8.00421 9.76651 8.37541 9.42119 8.20837C9.07369 8.07408 9.02998 7.54566 9.34251 7.35023Z" fill="black"/>
<path d="M26.2914 7.46596C26.5089 7.23668 26.9515 7.42338 26.9252 7.74109C26.9482 8.02058 26.5887 8.22038 26.3603 8.06316C26.1406 7.95398 26.1078 7.62317 26.2914 7.46596Z" fill="black"/>
<path d="M27.4738 7.44303C27.7044 7.24323 28.1032 7.44521 28.0803 7.74982C28.0901 8.0446 27.7022 8.22911 27.4782 8.04242C27.2782 7.90704 27.276 7.58059 27.4738 7.44303Z" fill="black"/>
<path d="M48.6977 7.46159C48.9184 7.23668 49.3566 7.42884 49.326 7.74545C49.3468 8.02495 48.9872 8.22038 48.7599 8.06316C48.5436 7.94853 48.513 7.61881 48.6977 7.46159Z" fill="black"/>
<path d="M49.8811 7.44085C50.1401 7.21485 50.5816 7.514 50.469 7.83826C50.4068 8.15487 49.9161 8.2171 49.7784 7.92451C49.6659 7.76729 49.7347 7.54784 49.8811 7.44085Z" fill="black"/>
<path d="M11.0942 7.99438C11.2603 7.87538 11.4975 7.88739 11.6537 8.0184C12.6613 8.79138 13.3115 9.9858 13.494 11.2348C13.5267 11.523 13.5705 11.8287 13.4699 12.1082C13.2699 12.4751 12.6077 12.3462 12.6219 11.8997C12.5301 10.7217 11.9717 9.59166 11.0844 8.80994C10.8079 8.62106 10.8101 8.17343 11.0942 7.99438Z" fill="black"/>
<path d="M16.2324 8.11884C16.5242 7.91031 16.9646 8.16033 16.9548 8.51298C16.9985 8.88746 16.5188 9.17023 16.2182 8.93659C15.9352 8.75645 15.945 8.28807 16.2324 8.11884Z" fill="black"/>
<path d="M1.13797 8.64181C1.35871 8.5097 1.66578 8.62107 1.77396 8.84816C1.89854 9.06105 1.76631 9.29142 1.71167 9.50214C1.51934 10.0655 1.4505 10.6594 1.4046 11.2501C1.38384 11.5285 1.05819 11.7294 0.798114 11.6257C0.595951 11.5591 0.456076 11.3472 0.479025 11.1344C0.505251 10.4411 0.636384 9.75215 0.845104 9.09053C0.903021 8.92131 0.96203 8.72479 1.13797 8.64181Z" fill="black"/>
<path d="M8.26285 9.45628C8.52402 9.38859 8.80924 9.29033 9.07587 9.37549C9.419 9.50323 9.46599 10.0251 9.15892 10.2183C8.8901 10.3439 8.57101 10.3133 8.30984 10.464C7.78203 10.7271 7.48917 11.3232 7.48807 11.8986C7.50337 13.2928 7.98091 14.7187 8.97425 15.7231C9.62991 16.3913 10.4462 16.9099 11.3434 17.1883C11.6024 17.2549 11.8548 17.4962 11.7554 17.7855C11.7171 18.0639 11.4133 18.1916 11.1631 18.1163C9.86049 17.8696 8.75897 16.9983 7.95906 15.9742C7.00616 14.7329 6.39093 13.1531 6.56468 11.5711C6.65538 10.6158 7.34055 9.74123 8.26285 9.45628Z" fill="black"/>
<path d="M16.9963 9.64734C17.311 9.50213 17.6913 9.80237 17.6443 10.1386C17.641 10.476 17.2247 10.7086 16.9373 10.5251C16.5974 10.3439 16.6324 9.77726 16.9963 9.64734Z" fill="black"/>
<path d="M10.326 10.0666C10.6396 9.86897 10.9718 10.1485 11.0789 10.4422C11.233 10.761 11.3467 11.1005 11.4013 11.451C11.4319 11.9106 10.7653 12.1508 10.5074 11.7621C10.3522 11.4226 10.2779 11.0503 10.1348 10.7053C10.0233 10.4815 10.102 10.1856 10.326 10.0666Z" fill="black"/>
<path d="M8.79722 11.4968C9.04965 11.3298 9.45835 11.4619 9.46709 11.7916C9.52938 12.4325 9.6168 13.0876 9.93917 13.6575C10.5009 14.7405 11.6953 15.4524 12.9159 15.4283C13.1781 15.448 13.5114 15.3344 13.707 15.5714C13.9507 15.8247 13.8109 16.3061 13.4601 16.3716C11.8155 16.6326 10.0954 15.7548 9.2387 14.3464C8.82344 13.6771 8.59178 12.8943 8.57757 12.1071C8.57648 11.892 8.59615 11.6257 8.79722 11.4968Z" fill="black"/>
<path d="M22.1629 12.7054C22.3848 12.7054 22.6077 12.7054 22.8295 12.7043C22.8306 14.2186 22.8262 15.734 22.8306 17.2494C22.8197 17.7626 23.2 18.208 23.6644 18.386C24.2818 18.6273 25.0227 18.5934 25.5953 18.2451C25.945 18.0388 26.1909 17.6534 26.1778 17.2407C26.1843 15.7286 26.1778 14.2165 26.18 12.7043C26.3996 12.7054 26.6193 12.7054 26.84 12.7054C26.8389 14.2175 26.84 15.7297 26.84 17.2418C26.8651 18.089 26.2029 18.826 25.4172 19.0585C24.4752 19.3511 23.3311 19.183 22.6306 18.4504C22.3214 18.1316 22.1629 17.6883 22.1651 17.2472C22.1607 15.734 22.1651 14.2197 22.1629 12.7054Z" fill="black"/>
<path d="M30.3161 12.6094C30.4833 12.6104 30.6505 12.6115 30.8188 12.6126C31.6788 14.7842 32.5399 16.9557 33.4043 19.1251C33.1693 19.1251 32.9344 19.1251 32.7005 19.1251C32.435 18.4657 32.1607 17.8084 31.8952 17.149C31.0133 17.1435 30.1303 17.1446 29.2485 17.1479C28.9742 17.8062 28.6966 18.4624 28.4376 19.1262C28.2005 19.1251 27.9645 19.1251 27.7284 19.1251C28.5939 16.9547 29.455 14.782 30.3161 12.6094ZM30.5828 13.5243C30.2123 14.5276 29.8615 15.5375 29.4998 16.5441C30.2101 16.5452 30.9204 16.5452 31.6307 16.5441C31.2843 15.5375 30.9248 14.5342 30.5828 13.5243Z" fill="black"/>
<path d="M34.2545 12.7043C35.5166 12.7054 36.7799 12.7065 38.0431 12.7043C38.0431 12.9238 38.0431 13.1432 38.0442 13.3638C37.0028 13.3627 35.9614 13.3638 34.92 13.3638C34.92 14.1029 34.92 14.842 34.92 15.5812C35.9395 15.5823 36.9591 15.5812 37.9786 15.5823C37.9786 15.8017 37.9776 16.0212 37.9786 16.2406C36.9591 16.2384 35.9395 16.2406 34.9211 16.2395C34.9189 16.9841 34.92 17.7298 34.9211 18.4744C35.9668 18.4733 37.0137 18.4744 38.0606 18.4744C38.0606 18.6906 38.0606 18.9079 38.0617 19.1262C36.7919 19.1262 35.5232 19.1262 34.2534 19.1262C34.2545 16.9852 34.2534 14.8453 34.2545 12.7043Z" fill="black"/>
<path d="M41.7793 12.6978C42.6076 12.7054 43.437 12.6901 44.2665 12.7043C44.9232 12.7262 45.557 13.1083 45.8564 13.6979C46.4225 14.7209 46.0837 16.2537 44.9451 16.721C44.1463 17.0114 43.2753 16.8247 42.4448 16.8771C42.4426 17.6261 42.4437 18.3762 42.4437 19.1262C42.2219 19.1251 42 19.1251 41.7793 19.1262C41.7793 16.983 41.7793 14.841 41.7793 12.6978ZM42.4426 13.3638C42.4448 14.3213 42.4437 15.2777 42.4437 16.2341C43.0174 16.2308 43.5922 16.2428 44.1659 16.2308C44.6336 16.2188 45.097 15.9535 45.3122 15.5321C45.7089 14.7754 45.3855 13.6291 44.497 13.4107C43.8184 13.3081 43.1267 13.3889 42.4426 13.3638Z" fill="black"/>
<path d="M46.1723 19.1262C47.0345 16.9536 47.8977 14.7831 48.7589 12.6104C48.9239 12.6104 49.0911 12.6104 49.2583 12.6104C50.1215 14.782 50.9837 16.9536 51.8448 19.1251C51.611 19.1251 51.3771 19.1251 51.1444 19.1262C50.8756 18.4668 50.6046 17.8084 50.3379 17.149C49.455 17.1446 48.5731 17.1446 47.6901 17.1479C47.4169 17.8062 47.1383 18.4624 46.8793 19.1262C46.6432 19.1262 46.4072 19.1251 46.1723 19.1262ZM47.9415 16.5441C48.6518 16.5452 49.3621 16.5463 50.0724 16.543C49.7205 15.5375 49.3785 14.5287 49.0157 13.5264C48.6616 14.5342 48.301 15.5386 47.9415 16.5441Z" fill="black"/>
<path d="M53.0862 13.2688C53.9419 12.4914 55.3592 12.4052 56.2979 13.0832C56.6334 13.3256 56.8421 13.6979 56.9536 14.0909C56.7361 14.0996 56.5197 14.1084 56.3034 14.1138C55.8466 13.1148 54.3855 13.0253 53.5966 13.6673C53.0677 14.0712 53.0994 15.0408 53.7408 15.3181C54.626 15.6925 55.6881 15.484 56.5143 16.0441C57.324 16.5354 57.347 17.7768 56.7121 18.4209C55.757 19.4068 53.9561 19.4679 52.989 18.4679C52.7278 18.2058 52.5847 17.8576 52.5158 17.4995C52.7366 17.4929 52.9584 17.4874 53.1802 17.482C53.5397 18.6917 55.3013 18.8423 56.1438 18.0595C56.6093 17.6698 56.6345 16.7887 56.0509 16.4994C55.168 16.0823 54.0927 16.3443 53.248 15.8061C52.3836 15.282 52.3628 13.9217 53.0862 13.2688Z" fill="black"/>
<path d="M58.7971 13.2983C59.6167 12.5155 60.9892 12.4106 61.9399 13.0144C62.3256 13.2546 62.5715 13.6596 62.6939 14.0898C62.4775 14.0996 62.2623 14.1084 62.0481 14.1171C61.5782 13.1072 60.0909 13.0199 59.3052 13.6935C58.7949 14.116 58.8594 15.0801 59.5096 15.3334C60.4013 15.6849 61.4645 15.4906 62.2841 16.0659C63.0283 16.5463 63.0786 17.6861 62.5267 18.3325C61.8405 19.1426 60.6275 19.3642 59.644 19.0454C58.9479 18.8271 58.36 18.2375 58.2561 17.5005C58.4736 17.4918 58.6922 17.4776 58.9118 17.4929C59.3227 18.7463 61.2176 18.8653 62.0065 17.9231C62.3639 17.4973 62.3027 16.7232 61.7585 16.4819C60.8919 16.0987 59.8614 16.3291 59.0298 15.8323C58.1403 15.3399 58.0846 13.9675 58.7971 13.2983Z" fill="black"/>
<path d="M11.4035 12.7873C11.7652 12.6203 12.1739 13.0537 12.0176 13.4107C11.9335 13.7175 11.5149 13.8453 11.2734 13.6378C10.9828 13.4205 11.0549 12.8987 11.4035 12.7873Z" fill="black"/>
<path d="M14.8129 14.7787C15.1408 14.5309 15.6369 14.8934 15.5342 15.2777C15.4926 15.6085 15.0654 15.8006 14.7976 15.5921C14.5223 15.4109 14.5288 14.948 14.8129 14.7787Z" fill="black"/>
<path d="M3.77046 15.8618C4.0666 15.6642 4.49715 15.9142 4.48732 16.2646C4.52229 16.6304 4.07097 16.9121 3.7639 16.697C3.46339 16.5212 3.47213 16.0343 3.77046 15.8618Z" fill="black"/>
<path d="M7.60937 7.48561C7.80389 7.4201 8.05522 7.35787 8.21914 7.52164C8.4978 7.74 8.41038 8.25095 8.0596 8.34048C7.01053 8.66801 6.11883 9.46938 5.71778 10.4957C5.40416 11.2512 5.41836 12.0929 5.51343 12.8921C5.62162 13.8311 5.94945 14.7318 6.40514 15.5561C6.62915 15.876 6.29586 16.3564 5.91994 16.2668C5.54403 16.1839 5.46644 15.7406 5.30471 15.4491C4.70697 13.9479 4.25019 12.2665 4.68511 10.6605C5.05775 9.20735 6.17128 7.95289 7.60937 7.48561Z" fill="black"/>
<path d="M6.7286 16.84C6.93841 16.6642 7.24548 16.7472 7.40502 16.9481C7.75471 17.2953 8.12407 17.6217 8.52621 17.9067C8.89557 18.1425 8.63986 18.7888 8.20712 18.7113C7.605 18.4875 7.08047 18.0683 6.67614 17.5748C6.486 17.3695 6.49584 17.0081 6.7286 16.84Z" fill="black"/>
</svg>
